<svg width="51" height="55" xmlns="http://www.w3.org/2000/svg" xmlns:xlink="http://www.w3.org/1999/xlink" xmlns:svgjs="http://svgjs.com/svgjs" viewBox="235 1256 51 55"><svg width="51" height="55" xmlns="http://www.w3.org/2000/svg" xmlns:xlink="http://www.w3.org/1999/xlink" xmlns:svgjs="http://svgjs.com/svgjs" viewBox="0.037 0 50.926 55" fill="#4c18aa" x="235" y="1256"><svg xmlns="http://www.w3.org/2000/svg" xmlns:xlink="http://www.w3.org/1999/xlink" width="51" height="55" viewBox="0 0 50 54"><path paint-order="stroke fill markers" fill-rule="evenodd" d="M50 36c0-19.888-9.16-36-20.454-36A6.804 6.804 0 0 0 25 1.752 6.806 6.806 0 0 0 20.455 0C9.16 0 0 16.112 0 36c0 9.94 8.14 18 18.182 18l2.273-.003A6.805 6.805 0 0 0 25 52.247c1.21 1.077 2.792 1.75 4.546 1.75L31.82 54C41.863 54 50 45.94 50 36z"/></svg></svg><svg width="19" height="46" xmlns="http://www.w3.org/2000/svg" xmlns:xlink="http://www.w3.org/1999/xlink" xmlns:svgjs="http://svgjs.com/svgjs" viewBox="0.208 0 18.584 46" fill="#f6f3ff" x="239" y="1260"><svg xmlns="http://www.w3.org/2000/svg" xmlns:xlink="http://www.w3.org/1999/xlink" width="19" height="46" viewBox="0.546 0.5 18.181 45.001"><path paint-order="stroke fill markers" fill-rule="evenodd" d="M18.727 43.248V5v-2.25c0-1.24-1.021-2.251-2.272-2.251-3.696 0-7.521 3.008-10.5 8.248-1.445 2.543-2.607 5.464-3.486 8.628l-.807 3.375A56.667 56.667 0 0 0 .546 32c0 7.441 6.118 13.497 13.634 13.5l2.275-.003c1.254 0 2.272-1.008 2.272-2.25z"/></svg></svg><svg width="19" height="46" xmlns="http://www.w3.org/2000/svg" xmlns:xlink="http://www.w3.org/1999/xlink" xmlns:svgjs="http://svgjs.com/svgjs" viewBox="0.208 0 18.584 46" fill="#f6f3ff" x="262" y="1260"><svg xmlns="http://www.w3.org/2000/svg" xmlns:xlink="http://www.w3.org/1999/xlink" width="19" height="46" viewBox="0.273 0.5 18.18 45.001"><path paint-order="stroke fill markers" fill-rule="evenodd" d="M18.453 32c0-3.914-.394-7.697-1.116-11.25l-.804-3.374c-.882-3.164-2.04-6.086-3.487-8.628C10.07 3.508 6.242.5 2.546.5 1.294.5.273 1.51.273 2.752v40.496c0 1.242 1.021 2.25 2.273 2.25l2.278.003c7.514-.003 13.63-6.059 13.63-13.5z"/></svg></svg><svg width="11" height="10" xmlns="http://www.w3.org/2000/svg" xmlns:xlink="http://www.w3.org/1999/xlink" xmlns:svgjs="http://svgjs.com/svgjs" viewBox="0 0.16 11 9.68" fill="#923bfe" x="262" y="1265"><svg xmlns="http://www.w3.org/2000/svg" xmlns:xlink="http://www.w3.org/1999/xlink" width="11" height="10" viewBox="0.273 0.001 10.227 9"><path paint-order="stroke fill markers" fill-rule="evenodd" d="M.273.001c0 3.105 2.543 5.625 5.681 5.625H10.5v3.375H5.954c-2.16 0-4.12-.776-5.68-2.025V0z"/></svg></svg><svg width="15" height="12" xmlns="http://www.w3.org/2000/svg" xmlns:xlink="http://www.w3.org/1999/xlink" xmlns:svgjs="http://svgjs.com/svgjs" viewBox="0.217 0 14.565 12" fill="#923bfe" x="265" y="1277"><svg xmlns="http://www.w3.org/2000/svg" xmlns:xlink="http://www.w3.org/1999/xlink" width="15" height="12" viewBox="0.682 0.376 13.655 11.25"><path paint-order="stroke fill markers" fill-rule="evenodd" d="M14.337 3.75H7.503L7.5 3.747v.005c-1.882 0-3.41 1.509-3.41 3.375v4.5H.683v-4.5C.682 3.395 3.737.376 7.5.376v.002l.004-.002h6.03l.804 3.375z"/></svg></svg><svg width="14" height="18" xmlns="http://www.w3.org/2000/svg" xmlns:xlink="http://www.w3.org/1999/xlink" xmlns:svgjs="http://svgjs.com/svgjs" viewBox="0 0.338 14 17.324" fill="#923bfe" x="262" y="1285"><svg xmlns="http://www.w3.org/2000/svg" xmlns:xlink="http://www.w3.org/1999/xlink" width="14" height="18" viewBox="0.273 0.252 13.637 16.874"><path paint-order="stroke fill markers" fill-rule="evenodd" d="M.273 9.25H4.82c3.135 0 5.681-2.517 5.681-5.623V.252h3.41v3.375c0 4.189-2.906 7.676-6.819 8.68v4.819H3.682v-4.5H.273V9.25z"/></svg></svg><svg width="11" height="10" xmlns="http://www.w3.org/2000/svg" xmlns:xlink="http://www.w3.org/1999/xlink" xmlns:svgjs="http://svgjs.com/svgjs" viewBox="0 0.159 11 9.681" fill="#923bfe" x="247" y="1265"><svg xmlns="http://www.w3.org/2000/svg" xmlns:xlink="http://www.w3.org/1999/xlink" width="11" height="10" viewBox="0.501 0.001 10.226 9"><path paint-order="stroke fill markers" fill-rule="evenodd" d="M10.727 6.976C9.167 8.225 7.208 9 5.045 9H.501V5.626h4.544c3.14 0 5.682-2.52 5.682-5.625v6.975z"/></svg></svg><svg width="14" height="18" xmlns="http://www.w3.org/2000/svg" xmlns:xlink="http://www.w3.org/1999/xlink" xmlns:svgjs="http://svgjs.com/svgjs" viewBox="0 0.338 14 17.324" fill="#923bfe" x="244" y="1285"><svg xmlns="http://www.w3.org/2000/svg" xmlns:xlink="http://www.w3.org/1999/xlink" width="14" height="18" viewBox="0.091 0.252 13.636 16.874"><path paint-order="stroke fill markers" fill-rule="evenodd" d="M13.727 12.625h-3.409v4.5H6.91v-4.819C2.996 11.303.091 7.816.091 3.626V.253H3.5v3.375c0 3.106 2.545 5.623 5.682 5.623h4.545v3.375z"/></svg></svg><svg width="15" height="12" xmlns="http://www.w3.org/2000/svg" xmlns:xlink="http://www.w3.org/1999/xlink" xmlns:svgjs="http://svgjs.com/svgjs" viewBox="0.216 0 14.568 12" fill="#923bfe" x="240" y="1277"><svg xmlns="http://www.w3.org/2000/svg" width="15" height="12" viewBox="0.662 0.376 13.658 11.25"><path paint-order="stroke fill markers" fill-rule="evenodd" d="M1.47.376h6.027l.005.002V.376c3.761 0 6.818 3.019 6.818 6.75v4.5h-3.409v-4.5c0-1.866-1.528-3.375-3.409-3.375v-.005l-.005.005H.662L1.47.376z"/></svg></svg></svg>