<svg width="17" height="16" xmlns="http://www.w3.org/2000/svg" xmlns:xlink="http://www.w3.org/1999/xlink" xmlns:svgjs="http://svgjs.com/svgjs" viewBox="0.498 0 16.004 16" fill="#fff"><svg xmlns="http://www.w3.org/2000/svg" width="17" height="16" viewBox="0.999 0 16 15.996"><path paint-order="stroke fill markers" fill-rule="evenodd" d="M16.943 4.7c-.06-1.281-.353-2.416-1.292-3.351C14.716.413 13.581.12 12.299.056c-1.32-.075-5.279-.075-6.6 0C4.422.117 3.287.41 2.348 1.345c-.939.935-1.228 2.07-1.292 3.352-.075 1.32-.075 5.279 0 6.6.06 1.281.353 2.416 1.292 3.351.939.936 2.07 1.228 3.351 1.293 1.321.074 5.28.074 6.6 0 1.282-.061 2.417-.354 3.352-1.293.935-.935 1.228-2.07 1.292-3.352.075-1.32.075-5.275 0-6.596zm-1.706 8.014a2.7 2.7 0 0 1-1.52 1.52c-1.054.418-3.552.321-4.716.321-1.163 0-3.666.093-4.715-.32a2.7 2.7 0 0 1-1.52-1.521c-.418-1.053-.322-3.552-.322-4.715 0-1.164-.093-3.667.321-4.716a2.7 2.7 0 0 1 1.521-1.52c1.053-.418 3.552-.322 4.715-.322 1.164 0 3.666-.092 4.715.321a2.7 2.7 0 0 1 1.521 1.521c.417 1.053.321 3.552.321 4.716 0 1.163.096 3.665-.32 4.715zm-1.01-8.985a.955.955 0 0 1-.957.957.957.957 0 1 1 .957-.957zM9 3.897A4.095 4.095 0 0 0 4.9 8 4.095 4.095 0 0 0 9 12.099 4.095 4.095 0 0 0 13.102 8a4.095 4.095 0 0 0-4.1-4.102zm0 6.768a2.671 2.671 0 0 1-2.666-2.666A2.669 2.669 0 0 1 9 5.332 2.669 2.669 0 0 1 11.667 8c0 1.47-1.199 2.666-2.666 2.666z"/></svg></svg>