<svg width="18" height="10" xmlns="http://www.w3.org/2000/svg" xmlns:xlink="http://www.w3.org/1999/xlink" xmlns:svgjs="http://svgjs.com/svgjs" fill="#fff"><svg xmlns="http://www.w3.org/2000/svg" width="18" height="10"><path paint-order="stroke fill markers" fill-rule="evenodd" d="M17.59.678c.123-.39 0-.678-.595-.678h-1.968c-.502 0-.732.247-.856.522 0 0-1.002 2.284-2.419 3.765-.458.428-.668.566-.919.566-.124 0-.314-.138-.314-.528V.678c0-.469-.14-.678-.555-.678H6.87c-.314 0-.501.219-.501.422 0 .443.708.547.782 1.797V4.93c0 .594-.114.703-.365.703-.668 0-2.292-2.294-3.254-4.919C3.338.206 3.148 0 2.643 0H.675C.113 0 0 .247 0 .522c0 .487.668 2.91 3.111 6.109C4.738 8.816 7.031 10 9.116 10c1.253 0 1.406-.263 1.406-.716 0-2.087-.113-2.284.515-2.284.29 0 .792.137 1.961 1.19C14.335 9.44 14.556 10 15.304 10h1.968c.562 0 .846-.263.682-.781-.374-1.091-2.904-3.335-3.017-3.485-.291-.35-.208-.506 0-.819.003-.003 2.405-3.165 2.653-4.237z"/></svg></svg>