<svg width="13" height="13" xmlns="http://www.w3.org/2000/svg" xmlns:xlink="http://www.w3.org/1999/xlink" xmlns:svgjs="http://svgjs.com/svgjs" fill="#a6abbd"><svg xmlns="http://www.w3.org/2000/svg" width="13" height="13" viewBox="1 0 12 12"><path paint-order="stroke fill markers" fill-rule="evenodd" d="M12.657 8.48l-2.625-1.125a.562.562 0 0 0-.656.161l-1.162 1.42A8.689 8.689 0 0 1 4.06 4.785l1.42-1.162a.561.561 0 0 0 .162-.657L4.518.34a.566.566 0 0 0-.645-.326L1.436.577A.563.563 0 0 0 1 1.125C1 7.137 5.872 12 11.875 12c.262 0 .49-.18.548-.436l.563-2.437a.57.57 0 0 0-.329-.647z"/></svg></svg>