<svg width="19" height="12" xmlns="http://www.w3.org/2000/svg" xmlns:xlink="http://www.w3.org/1999/xlink" xmlns:svgjs="http://svgjs.com/svgjs" viewBox="0.5 0 18 12" fill="#fff"><svg xmlns="http://www.w3.org/2000/svg" width="19" height="12" viewBox="0 0 18 12"><path paint-order="stroke fill markers" fill-rule="evenodd" d="M17.624 1.878c-.207-.74-.817-1.322-1.592-1.52C14.63 0 9 0 9 0S3.371 0 1.968.359C1.193.556.583 1.139.376 1.878 0 3.217 0 6.012 0 6.012s0 2.795.376 4.134c.207.74.817 1.297 1.592 1.495C3.37 12 9 12 9 12s5.629 0 7.032-.36c.775-.197 1.385-.754 1.592-1.494C18 8.807 18 6.012 18 6.012s0-2.795-.376-4.134zM7.159 8.55V3.474l4.705 2.538L7.159 8.55z"/></svg></svg>