<svg width="18" height="18" xmlns="http://www.w3.org/2000/svg" xmlns:xlink="http://www.w3.org/1999/xlink" xmlns:svgjs="http://svgjs.com/svgjs" fill="#4c18aa"><svg xmlns="http://www.w3.org/2000/svg" width="18" height="18"><path paint-order="stroke fill markers" fill-rule="evenodd" d="M9 0C4.028 0 0 4.028 0 9s4.028 9 9 9 9-4.028 9-9-4.028-9-9-9zm0 3.484A3.194 3.194 0 1 1 9 9.87a3.194 3.194 0 0 1 0-6.387zm0 12.483c-2.13 0-4.04-.965-5.317-2.474.683-1.285 2.018-2.17 3.575-2.17.087 0 .174.014.258.04a4.8 4.8 0 0 0 1.484.25c.519 0 1.016-.098 1.484-.25a.892.892 0 0 1 .258-.04c1.557 0 2.892.885 3.574 2.17A6.955 6.955 0 0 1 9 15.967z"/></svg></svg>