<svg width="56" height="57" xmlns="http://www.w3.org/2000/svg" xmlns:xlink="http://www.w3.org/1999/xlink" xmlns:svgjs="http://svgjs.com/svgjs" viewBox="548 1255 56 57"><svg width="10" height="10" xmlns="http://www.w3.org/2000/svg" xmlns:xlink="http://www.w3.org/1999/xlink" xmlns:svgjs="http://svgjs.com/svgjs" viewBox="0 0.698 10 8.603" fill="#923bfe" x="571" y="1302"><svg xmlns="http://www.w3.org/2000/svg" xmlns:xlink="http://www.w3.org/1999/xlink" width="10" height="10" viewBox="0.333 0.969 9.334 8.03"><path paint-order="stroke fill markers" fill-rule="evenodd" d="M.333 4.081L9.667.97v4.92L.333 9V4.082z"/></svg></svg><svg width="20" height="12" xmlns="http://www.w3.org/2000/svg" xmlns:xlink="http://www.w3.org/1999/xlink" xmlns:svgjs="http://svgjs.com/svgjs" viewBox="0 0.032 20 11.937" fill="#923bfe" x="566" y="1291"><svg xmlns="http://www.w3.org/2000/svg" xmlns:xlink="http://www.w3.org/1999/xlink" width="20" height="12" viewBox="0.667 0.576 18.666 11.141"><path paint-order="stroke fill markers" fill-rule="evenodd" d="M.667 6.8L19.333.575v4.918L.667 11.717V6.799z"/></svg></svg><svg width="28" height="22" xmlns="http://www.w3.org/2000/svg" xmlns:xlink="http://www.w3.org/1999/xlink" xmlns:svgjs="http://svgjs.com/svgjs" viewBox="0 0.5 28 21" fill="#f6f3ff" x="562" y="1259"><svg xmlns="http://www.w3.org/2000/svg" xmlns:xlink="http://www.w3.org/1999/xlink" width="28" height="22" viewBox="0 0.666 28 21"><path paint-order="stroke fill markers" fill-rule="evenodd" d="M4.667 21.666l-.042-6.535-1.415-1.374C3.08 13.629 0 10.58 0 5.713 0 1.543 2.537.666 4.666.666c1.275 0 1.977.313 3.145.83C9.236 2.13 11.197 3 14 3c2.805 0 4.763-.87 6.192-1.504 1.164-.516 1.866-.83 3.14-.83 2.13 0 4.668.876 4.668 5.047 0 4.866-3.08 7.916-3.172 8.008l-1.495 1.384v6.56H4.667z"/></svg></svg><svg width="38" height="26" xmlns="http://www.w3.org/2000/svg" xmlns:xlink="http://www.w3.org/1999/xlink" xmlns:svgjs="http://svgjs.com/svgjs" viewBox="0.09 0 37.82 26" fill="#4c18aa" x="557" y="1255"><svg xmlns="http://www.w3.org/2000/svg" xmlns:xlink="http://www.w3.org/1999/xlink" width="38" height="26" viewBox="0.333 0 37.334 25.666"><path paint-order="stroke fill markers" fill-rule="evenodd" d="M28.333 25.666v-6.56l1.495-1.385C29.92 17.63 33 14.581 33 9.713c0-4.17-2.538-5.047-4.667-5.047-1.275 0-1.977.314-3.141.83C23.763 6.13 21.805 7 19 7c-2.803 0-4.764-.87-6.189-1.504-1.167-.516-1.869-.83-3.145-.83C7.537 4.666 5 5.542 5 9.713c0 4.866 3.08 7.916 3.21 8.043l1.415 1.374.042 6.535H5v-4.522S.333 16.815.333 9.713C.333 2.612 5.3 0 9.667 0S15.232 2.334 19 2.334C22.77 2.334 23.965 0 28.333 0c4.367 0 9.334 2.614 9.334 9.713 0 7.103-4.667 11.43-4.667 11.43v4.523h-4.667z"/></svg></svg><svg width="56" height="15" xmlns="http://www.w3.org/2000/svg" xmlns:xlink="http://www.w3.org/1999/xlink" xmlns:svgjs="http://svgjs.com/svgjs" viewBox="0 0.616 56 13.769" fill="#923bfe" x="548" y="1280"><svg xmlns="http://www.w3.org/2000/svg" width="56" height="15" viewBox="0 0.666 56 13.768"><path paint-order="stroke fill markers" fill-rule="evenodd" d="M0 .666v4.668h26.544L14 9.514v4.92l27.303-9.1H56V.666H0z"/></svg></svg></svg>