<svg width="39" height="39" xmlns="http://www.w3.org/2000/svg" xmlns:xlink="http://www.w3.org/1999/xlink" xmlns:svgjs="http://svgjs.com/svgjs" viewBox="0.043 0 38.914 39" fill="#4b18a9"><svg xmlns="http://www.w3.org/2000/svg" width="39" height="39" viewBox="0.001 0 38.315 38.4"><path paint-order="stroke fill markers" fill-rule="evenodd" d="M19.156 38.4c-2.588 0-5.097-.508-7.457-1.51a19.067 19.067 0 0 1-6.089-4.115 19.147 19.147 0 0 1-4.104-6.103 19.13 19.13 0 0 1-1.505-7.474c0-2.592.507-5.106 1.505-7.471A19.103 19.103 0 0 1 5.61 5.623 19.074 19.074 0 0 1 11.7 1.51 18.976 18.976 0 0 1 19.155 0c2.59 0 5.099.508 7.458 1.51a19.082 19.082 0 0 1 6.092 4.114 19.108 19.108 0 0 1 4.105 6.104 19.108 19.108 0 0 1 1.505 7.471 19.153 19.153 0 0 1-5.61 13.577 19.073 19.073 0 0 1-6.092 4.115 18.982 18.982 0 0 1-7.458 1.51zm-7.98-28.799v19.197h8.65c2.062 0 3.907-.4 5.486-1.189 1.585-.797 2.832-1.928 3.704-3.364.873-1.439 1.316-3.138 1.316-5.047 0-1.908-.443-3.604-1.316-5.044-.878-1.439-2.124-2.57-3.704-3.359-1.579-.792-3.424-1.194-5.485-1.194h-8.65zm8.438 15.554h-4.032V13.25h4.032c1.899 0 3.432.54 4.556 1.605 1.127 1.062 1.698 2.523 1.698 4.343 0 1.822-.571 3.285-1.698 4.349-1.132 1.067-2.664 1.608-4.556 1.608z"/></svg></svg>