<svg width="428" height="480" xmlns="http://www.w3.org/2000/svg" xmlns:xlink="http://www.w3.org/1999/xlink" xmlns:svgjs="http://svgjs.com/svgjs" viewBox="146 128 428 480"><svg width="428" height="480" xmlns="http://www.w3.org/2000/svg" xmlns:xlink="http://www.w3.org/1999/xlink" xmlns:svgjs="http://svgjs.com/svgjs" viewBox="146 128 428 480" x="146" y="128"><svg width="428" height="480" xmlns="http://www.w3.org/2000/svg" xmlns:xlink="http://www.w3.org/1999/xlink" xmlns:svgjs="http://svgjs.com/svgjs" viewBox="146 128 428 480" x="146" y="128"><svg width="428" height="480" xmlns="http://www.w3.org/2000/svg" xmlns:xlink="http://www.w3.org/1999/xlink" xmlns:svgjs="http://svgjs.com/svgjs" viewBox="0 220.516 428 38.968" fill="#4b18a9" stroke-miterlimit="100" stroke="#000" x="146" y="128"><svg xmlns="http://www.w3.org/2000/svg" xmlns:xlink="http://www.w3.org/1999/xlink" width="428" height="480" viewBox="-5051 0 5264.97 479.36"><path paint-order="stroke fill markers" fill-rule="evenodd" d="M213.967 479.36C-5051 479.36-5051 477.148-5051 472.724v-95.036-43.021-190.014-43.035V6.632c0-8.844 5255.522-8.843 5240.222.003L24.83 101.67C9.53 110.517.024 127.001.02 144.693l-.02 190.014c-.002 17.697 9.505 34.187 24.813 43.035l164.35 94.986a49.557 49.557 0 0 0 24.803 6.632zM-5051 .617V472.19c0 8.736 5255.582 8.737 5240.471.003L25.122 377.208C10.005 368.47.615 352.185.618 334.707l.02-190.014c.002-17.471 9.39-33.751 24.501-42.487L189.53 7.169C197.085 2.801 205.56.617-5051 .617z"/></svg></svg></svg><svg width="428" height="480" xmlns="http://www.w3.org/2000/svg" xmlns:xlink="http://www.w3.org/1999/xlink" xmlns:svgjs="http://svgjs.com/svgjs" viewBox="146 128 428 480" x="146" y="128"><svg width="428" height="480" xmlns="http://www.w3.org/2000/svg" xmlns:xlink="http://www.w3.org/1999/xlink" xmlns:svgjs="http://svgjs.com/svgjs" viewBox="0 220.457 428 39.085" fill="#4b18a9" stroke-miterlimit="100" stroke="#000" x="146" y="128"><svg xmlns="http://www.w3.org/2000/svg" xmlns:xlink="http://www.w3.org/1999/xlink" width="428" height="480" viewBox="-5051 0.287 5242.87 478.785"><path paint-order="stroke fill markers" fill-rule="evenodd" d="M189.375 6.902l-164.39 95.036C9.73 110.758.332 127.055.33 144.693L.308 334.705c-.002 17.644 9.399 33.948 24.66 42.768l164.349 94.987c15.256 8.817-5240.317 8.816-5240.317-.002V377.42v-42.754-190.012-42.77V6.9c0-8.817 5255.63-8.816 5240.375.003zm2.466 4.276C205.526 3.266-5051 3.265-5051 11.175V468.181c0 7.912 5256.468 7.913 5242.782.003l-164.35-94.987c-13.69-7.914-22.195-22.662-22.193-38.492l.022-190.012c.001-15.823 8.504-30.567 22.189-38.479l164.391-95.036z"/></svg></svg><svg width="428" height="480" xmlns="http://www.w3.org/2000/svg" xmlns:xlink="http://www.w3.org/1999/xlink" xmlns:svgjs="http://svgjs.com/svgjs" viewBox="0 220.516 428 38.968" fill="#4b18a9" stroke-miterlimit="100" stroke="#000" x="146" y="128"><svg xmlns="http://www.w3.org/2000/svg" xmlns:xlink="http://www.w3.org/1999/xlink" width="428" height="480" viewBox="-5051 0 5264.97 479.36"><path paint-order="stroke fill markers" fill-rule="evenodd" d="M213.967 479.36C-5051 479.36-5051 477.148-5051 472.724v-95.036-43.021-190.012-43.036V6.632c0-8.844 5255.522-8.842 5240.222.003L24.83 101.67C9.53 110.517.024 127.001.022 144.693L0 334.705c-.002 17.698 9.506 34.188 24.813 43.035l164.35 94.988a49.558 49.558 0 0 0 24.804 6.632zM-5051 .617V472.19c0 8.735 5255.584 8.737 5240.47.003L25.122 377.206C10.004 368.47.614 352.183.616 334.706l.022-190.013c.002-17.471 9.39-33.752 24.5-42.487L189.53 7.169C197.085 2.801 205.56.617-5051 .617zM213.967 474.424C-5051 474.424-5051 472.433-5051 468.45v-95.037-38.745-190.013-38.759-94.987c0-7.965 5256.467-7.964 5242.687.003L27.296 105.947c-13.781 7.967-22.342 22.814-22.343 38.746l-.022 190.012c-.002 15.94 8.56 30.79 22.347 38.76l164.35 94.986a44.631 44.631 0 0 0 22.339 5.973zM-5051 5.552v462.363c0 7.855 5256.527 7.857 5242.936.002L27.586 372.93c-13.596-7.858-22.04-22.506-22.039-38.225l.022-190.012c.002-15.713 8.445-30.355 22.035-38.212l164.391-95.036C198.79 7.517 206.411 5.552-5051 5.552z"/></svg></svg></svg><svg width="402" height="449" xmlns="http://www.w3.org/2000/svg" xmlns:xlink="http://www.w3.org/1999/xlink" xmlns:svgjs="http://svgjs.com/svgjs" viewBox="159 143 402 449" x="159" y="143"><svg width="402" height="449" xmlns="http://www.w3.org/2000/svg" xmlns:xlink="http://www.w3.org/1999/xlink" xmlns:svgjs="http://svgjs.com/svgjs" viewBox="0 207.296 402 34.408" fill="#4b18a9" stroke-miterlimit="100" stroke="#000" x="159" y="143"><svg xmlns="http://www.w3.org/2000/svg" xmlns:xlink="http://www.w3.org/1999/xlink" width="402" height="449" viewBox="-5064 0.301 5241.31 448.609"><path paint-order="stroke fill markers" fill-rule="evenodd" d="M-5064 448.91v-6.636-87.31-43.028-174.645-43.023V6.935c0-8.846 5255.727-8.846 5240.424.001L25.397 94.246C10.094 103.092.588 119.58.588 137.274l.01 174.647c.001 17.691 9.507 34.176 24.807 43.023l151.043 87.33c7.65 4.423 16.23 6.634-5240.448 6.635zm0-447.993V441.74c0 8.738 5255.869 8.738 5240.756.001L25.713 354.41c-15.11-8.736-24.498-25.017-24.499-42.49l-.01-174.646c0-17.475 9.389-33.757 24.501-42.493L176.732 7.47C184.29 3.1 192.762.917-5064 .917z"/></svg></svg></svg><svg width="402" height="449" xmlns="http://www.w3.org/2000/svg" xmlns:xlink="http://www.w3.org/1999/xlink" xmlns:svgjs="http://svgjs.com/svgjs" viewBox="159 143 402 449" x="159" y="143"><svg width="402" height="449" xmlns="http://www.w3.org/2000/svg" xmlns:xlink="http://www.w3.org/1999/xlink" xmlns:svgjs="http://svgjs.com/svgjs" viewBox="0 207.324 402 34.352" fill="#4b18a9" stroke-miterlimit="100" stroke="#000" x="159" y="143"><svg xmlns="http://www.w3.org/2000/svg" xmlns:xlink="http://www.w3.org/1999/xlink" width="402" height="449" viewBox="-5064 0.588 5243.09 448.035"><path paint-order="stroke fill markers" fill-rule="evenodd" d="M176.577 7.203L25.552 94.513C10.294 103.333.896 119.634.897 137.275l.009 174.646c0 17.638 9.398 33.936 24.653 42.756l151.043 87.33C191.858 450.83-5064 450.83-5064 442.008v-87.31-42.762-174.645-42.756-87.33c0-8.821 5255.834-8.822 5240.577-.002zm2.466 4.276C192.73 3.566-5064 3.567-5064 11.48v426.252c0 7.913 5256.755 7.913 5243.068 0L28.024 350.4c-13.684-7.912-22.187-22.657-22.187-38.48l-.009-174.646c0-15.826 8.502-30.573 22.19-38.486l151.025-87.31z"/></svg></svg><svg width="402" height="449" xmlns="http://www.w3.org/2000/svg" xmlns:xlink="http://www.w3.org/1999/xlink" xmlns:svgjs="http://svgjs.com/svgjs" viewBox="0 207.304 402 34.392" fill="#4b18a9" stroke-miterlimit="100" stroke="#000" x="159" y="143"><svg xmlns="http://www.w3.org/2000/svg" xmlns:xlink="http://www.w3.org/1999/xlink" width="402" height="449" viewBox="-5064 0.301 5243.69 448.609"><path paint-order="stroke fill markers" fill-rule="evenodd" d="M-5064 448.91v-6.634-87.31-43.03-174.645-43.024-87.33c0-8.848 5255.726-8.847 5240.423-.001L25.397 94.246C10.094 103.094.588 119.581.588 137.276l.01 174.645c.001 17.691 9.507 34.177 24.807 43.022l151.043 87.33C184.1 446.7 192.681 448.91-5064 448.91zm0-447.992V441.74c0 8.737 5255.869 8.736 5240.756 0L25.713 354.41c-15.11-8.737-24.498-25.017-24.499-42.49l-.01-174.645c0-17.474 9.389-33.757 24.501-42.494L176.731 7.47C184.288 3.103 192.761.918-5064 .918zm0 443.058V438v-87.31-38.753V137.29 98.543v-87.33c0-7.969 5256.671-7.969 5242.889-.001L27.863 98.522C14.08 106.49 5.519 121.34 5.519 137.275l.01 174.645c0 15.933 8.561 30.78 22.341 38.748l151.043 87.33c6.892 3.985 14.62 5.978-5242.913 5.978zm0-438.123V437.466c0 7.858 5256.814 7.857 5243.222-.001L28.178 350.134c-13.59-7.858-22.033-22.501-22.033-38.214l-.01-174.645c0-15.716 8.444-30.36 22.036-38.219l151.026-87.31C185.993 7.819 193.614 5.854-5064 5.854z"/></svg></svg></svg><svg width="376" height="418" xmlns="http://www.w3.org/2000/svg" xmlns:xlink="http://www.w3.org/1999/xlink" xmlns:svgjs="http://svgjs.com/svgjs" viewBox="172 158 376 418" x="172" y="158"><svg width="376" height="418" xmlns="http://www.w3.org/2000/svg" xmlns:xlink="http://www.w3.org/1999/xlink" xmlns:svgjs="http://svgjs.com/svgjs" viewBox="0 194.097 376 29.805" fill="#4b18a9" stroke-miterlimit="100" stroke="#000" x="172" y="158"><svg xmlns="http://www.w3.org/2000/svg" xmlns:xlink="http://www.w3.org/1999/xlink" width="376" height="418" viewBox="-5077 0.591 5264.91 417.346"><path paint-order="stroke fill markers" fill-rule="evenodd" d="M187.914 417.938C-5077 417.938-5077 415.726-5077 411.303v-79.606-43.004-158.988-43.062V7.214c0-8.835 5255.632-8.83 5240.336.012l-137.7 79.606C10.344 95.674.837 112.152.829 129.836l-.073 158.99c-.009 17.712 9.505 34.213 24.829 43.062l137.541 79.427a49.564 49.564 0 0 0 24.79 6.623zM-5077 1.208V410.77c0 8.732 5255.543 8.738 5240.434.011L25.892 331.353c-15.134-8.74-24.53-25.035-24.52-42.528l.072-158.99c.01-17.463 9.397-33.736 24.501-42.468l137.7-79.606c7.554-4.368 16.03-6.552-5240.645-6.552z"/></svg></svg></svg><svg width="376" height="418" xmlns="http://www.w3.org/2000/svg" xmlns:xlink="http://www.w3.org/1999/xlink" xmlns:svgjs="http://svgjs.com/svgjs" viewBox="172 158 376 418" x="172" y="158"><svg width="374" height="418" xmlns="http://www.w3.org/2000/svg" xmlns:xlink="http://www.w3.org/1999/xlink" xmlns:svgjs="http://svgjs.com/svgjs" viewBox="0 194.135 374 29.73" fill="#4b18a9" stroke-miterlimit="100" stroke="#000" x="173" y="158"><svg xmlns="http://www.w3.org/2000/svg" xmlns:xlink="http://www.w3.org/1999/xlink" width="374" height="418" viewBox="-5078 0.878 5242.98 416.772"><path paint-order="stroke fill markers" fill-rule="evenodd" d="M162.491 7.493L24.791 87.1C9.542 95.915.146 112.204.138 129.836L.06 288.824c-.008 17.656 9.4 33.973 24.676 42.795l137.543 79.428c15.254 8.809-5240.28 8.805-5240.28-.011V331.43v-42.736-158.989-42.794V7.48c0-8.808 5255.74-8.804 5240.491.012zm2.466 4.276C178.636 3.861-5078 3.857-5078 11.76V406.76c0 7.908 5256.427 7.912 5242.743.01L27.2 327.342c-13.706-7.915-22.215-22.674-22.207-38.516l.075-158.988c.007-15.817 8.51-30.554 22.189-38.463l137.7-79.606z"/></svg></svg><svg width="376" height="418" xmlns="http://www.w3.org/2000/svg" xmlns:xlink="http://www.w3.org/1999/xlink" xmlns:svgjs="http://svgjs.com/svgjs" viewBox="0 194.097 376 29.805" fill="#4b18a9" stroke-miterlimit="100" stroke="#000" x="172" y="158"><svg xmlns="http://www.w3.org/2000/svg" xmlns:xlink="http://www.w3.org/1999/xlink" width="376" height="418" viewBox="-5077 0.591 5264.91 417.346"><path paint-order="stroke fill markers" fill-rule="evenodd" d="M187.914 417.938C-5077 417.938-5077 415.726-5077 411.303v-79.606-43.004-158.988-43.062V7.214c0-8.834 5255.632-8.83 5240.336.012L25.638 86.832c-15.295 8.842-24.8 25.32-24.81 43.004L.754 288.824c-.008 17.713 9.506 34.213 24.83 43.062l137.542 79.43a49.566 49.566 0 0 0 24.79 6.622zM-5077 1.208V410.77c0 8.732 5255.543 8.738 5240.434.011L25.891 331.351c-15.134-8.739-24.53-25.034-24.521-42.527l.075-158.988c.009-17.464 9.397-33.737 24.5-42.47l137.7-79.605C171.2 3.393 179.675 1.209-5077 1.209zM187.914 413.003C-5077 413.002-5077 411.011-5077 407.027v-79.606-38.73-158.988-38.782-79.43c0-7.956 5256.577-7.953 5242.802.01l-137.7 79.607C14.329 99.07 5.768 113.91 5.76 129.838l-.076 158.988c-.007 15.952 8.562 30.813 22.362 38.783l137.544 79.429a44.63 44.63 0 0 0 22.324 5.964zM-5077 6.144V406.493c0 7.853 5256.485 7.857 5242.898.01L28.354 327.074c-13.61-7.86-22.06-22.515-22.053-38.248l.075-158.988c.007-15.706 8.45-30.342 22.035-38.196l137.7-79.606C172.904 8.108 180.525 6.144-5077 6.144z"/></svg></svg></svg><svg width="349" height="387" xmlns="http://www.w3.org/2000/svg" xmlns:xlink="http://www.w3.org/1999/xlink" xmlns:svgjs="http://svgjs.com/svgjs" viewBox="185 174 349 387" x="185" y="174"><svg width="349" height="387" xmlns="http://www.w3.org/2000/svg" xmlns:xlink="http://www.w3.org/1999/xlink" xmlns:svgjs="http://svgjs.com/svgjs" viewBox="0 180.703 349 25.594" fill="#4b18a9" stroke-miterlimit="100" stroke="#000" x="185" y="174"><svg xmlns="http://www.w3.org/2000/svg" xmlns:xlink="http://www.w3.org/1999/xlink" width="349" height="387" viewBox="-5090 0.499 5264.57 386.085"><path paint-order="stroke fill markers" fill-rule="evenodd" d="M174.568 386.584C-5090 386.584-5090 384.372-5090 379.949v-71.904-42.973-143.329-43.106V7.106c0-8.82 5255.536-8.809 5240.253.027L25.875 79.037c-15.284 8.835-24.79 25.302-24.809 42.973L.912 265.338c-.02 17.738 9.503 34.255 24.854 43.108l124.04 71.531a49.565 49.565 0 0 0 24.762 6.607zM-5090 1.115v378.3c0 8.727 5255.216 8.735 5240.114.026l-124.04-71.53c-15.16-8.743-24.566-25.055-24.546-42.571l.155-143.33c.018-17.451 9.406-33.712 24.5-42.438L150.562 7.667C158.115 3.3 166.59 1.115-5090 1.115z"/></svg></svg></svg><svg width="349" height="387" xmlns="http://www.w3.org/2000/svg" xmlns:xlink="http://www.w3.org/1999/xlink" xmlns:svgjs="http://svgjs.com/svgjs" viewBox="185 174 349 387" x="185" y="174"><svg width="348" height="387" xmlns="http://www.w3.org/2000/svg" xmlns:xlink="http://www.w3.org/1999/xlink" xmlns:svgjs="http://svgjs.com/svgjs" viewBox="0 180.706 348 25.589" fill="#4b18a9" stroke-miterlimit="100" stroke="#000" x="186" y="174"><svg xmlns="http://www.w3.org/2000/svg" xmlns:xlink="http://www.w3.org/1999/xlink" width="348" height="387" viewBox="-5091 0.785 5242.9 385.512"><path paint-order="stroke fill markers" fill-rule="evenodd" d="M149.407 7.4L25.029 79.304C9.789 88.114.393 104.39.374 122.01L.22 265.34c-.02 17.678 9.401 34.017 24.7 42.84l124.04 71.53c15.25 8.794-5239.96 8.784-5239.96-.027v-71.905-42.706-143.328-42.84-71.53c0-8.794 5255.646-8.784 5240.407.027zm2.465 4.276C165.542 3.773-5091 3.764-5091 11.652v363.754c0 7.903 5256.099 7.912 5242.42.024L27.382 303.9c-13.73-7.917-22.248-22.69-22.231-38.556l.154-143.328c.017-15.805 8.52-30.533 22.19-38.436l124.377-71.904z"/></svg></svg><svg width="349" height="387" xmlns="http://www.w3.org/2000/svg" xmlns:xlink="http://www.w3.org/1999/xlink" xmlns:svgjs="http://svgjs.com/svgjs" viewBox="0 180.703 349 25.594" fill="#4b18a9" stroke-miterlimit="100" stroke="#000" x="185" y="174"><svg xmlns="http://www.w3.org/2000/svg" xmlns:xlink="http://www.w3.org/1999/xlink" width="349" height="387" viewBox="-5090 0.498 5264.57 386.085"><path paint-order="stroke fill markers" fill-rule="evenodd" d="M174.568 386.583C-5090 386.584-5090 384.373-5090 379.95v-71.904-42.973-143.329-43.107-71.53c0-8.82 5255.536-8.81 5240.253.027L25.875 79.037c-15.284 8.836-24.79 25.302-24.81 42.973L.913 265.338c-.02 17.739 9.503 34.256 24.854 43.108l124.04 71.53a49.57 49.57 0 0 0 24.762 6.607zM-5090 1.115v378.3c0 8.727 5255.216 8.736 5240.114.026l-124.04-71.53c-15.16-8.742-24.566-25.055-24.546-42.572l.154-143.328c.02-17.451 9.407-33.713 24.5-42.44L150.562 7.668C158.114 3.3 166.589 1.115-5090 1.115zM174.568 381.648C-5090 381.648-5090 379.657-5090 375.673V303.77v-38.702-143.33-38.823-71.53c0-7.942 5256.484-7.933 5242.718.024L28.34 83.313C14.575 91.27 6.014 106.1 5.997 122.016l-.154 143.328c-.018 15.975 8.56 30.851 22.384 38.823l124.04 71.531a44.635 44.635 0 0 0 22.301 5.95zM-5090 6.051v369.088c0 7.848 5256.158 7.857 5242.574.024L28.536 303.632C14.9 295.77 6.442 281.099 6.459 265.345l.154-143.328c.017-15.696 8.46-30.322 22.035-38.17l124.378-71.904C159.82 8.015 167.442 6.051-5090 6.051z"/></svg></svg></svg><svg width="322" height="357" xmlns="http://www.w3.org/2000/svg" xmlns:xlink="http://www.w3.org/1999/xlink" xmlns:svgjs="http://svgjs.com/svgjs" viewBox="199 189 322 357" x="199" y="189"><svg width="322" height="357" xmlns="http://www.w3.org/2000/svg" xmlns:xlink="http://www.w3.org/1999/xlink" xmlns:svgjs="http://svgjs.com/svgjs" viewBox="0 167.634 322 21.732" fill="#4b18a9" stroke-miterlimit="100" stroke="#000" x="199" y="189"><svg xmlns="http://www.w3.org/2000/svg" xmlns:xlink="http://www.w3.org/1999/xlink" width="322" height="357" viewBox="-5104 0.799 5264.91 355.336"><path paint-order="stroke fill markers" fill-rule="evenodd" d="M160.907 356.135C-5104 356.136-5104 353.924-5104 349.501v-64.179-42.98-127.96-43.098V7.41c0-8.822 5255.79-8.812 5240.503.025L25.488 71.613C10.202 80.449.696 96.918.678 114.593l-.12 127.96c-.017 17.732 9.504 34.246 24.85 43.098l110.73 63.874a49.57 49.57 0 0 0 24.77 6.61zM-5104 1.416v347.552c0 8.726 5255.55 8.735 5240.447.022L25.716 285.116c-15.155-8.742-24.559-25.051-24.542-42.562l.121-127.96c.018-17.455 9.405-33.72 24.501-42.447l111.015-64.18c7.555-4.366 16.029-6.55-5240.811-6.55z"/></svg></svg></svg><svg width="322" height="357" xmlns="http://www.w3.org/2000/svg" xmlns:xlink="http://www.w3.org/1999/xlink" xmlns:svgjs="http://svgjs.com/svgjs" viewBox="199 189 322 357" x="199" y="189"><svg width="322" height="355" xmlns="http://www.w3.org/2000/svg" xmlns:xlink="http://www.w3.org/1999/xlink" xmlns:svgjs="http://svgjs.com/svgjs" viewBox="0 166.606 322 21.787" fill="#4b18a9" stroke-miterlimit="100" stroke="#000" x="199" y="190"><svg xmlns="http://www.w3.org/2000/svg" xmlns:xlink="http://www.w3.org/1999/xlink" width="322" height="355" viewBox="-5104 0.086 5243.15 354.763"><path paint-order="stroke fill markers" fill-rule="evenodd" d="M136.657 6.7L25.643 70.88C10.4 79.69 1.004 95.97.988 113.593l-.122 127.96c-.017 17.673 9.402 34.008 24.696 42.83l110.73 63.874c15.25 8.798-5240.292 8.788-5240.292-.023v-64.18-42.712-127.96-42.83V6.677c0-8.797 5255.9-8.788 5240.657.024zm2.465 4.276C152.795 3.073-5104 3.065-5104 10.956V343.958c0 7.904 5256.434 7.912 5242.754.02L28.023 280.105c-13.725-7.916-22.241-22.687-22.226-38.547l.122-127.96c.015-15.807 8.517-30.538 22.189-38.441l111.014-64.18z"/></svg></svg><svg width="322" height="357" xmlns="http://www.w3.org/2000/svg" xmlns:xlink="http://www.w3.org/1999/xlink" xmlns:svgjs="http://svgjs.com/svgjs" viewBox="0 167.634 322 21.732" fill="#4b18a9" stroke-miterlimit="100" stroke="#000" x="199" y="189"><svg xmlns="http://www.w3.org/2000/svg" xmlns:xlink="http://www.w3.org/1999/xlink" width="322" height="357" viewBox="-5104 0.799 5264.91 355.336"><path paint-order="stroke fill markers" fill-rule="evenodd" d="M160.907 356.135C-5104 356.135-5104 353.924-5104 349.5v-64.178-42.98-127.96-43.097V7.41c0-8.823 5255.789-8.813 5240.504.024L25.488 71.612C10.202 80.45.696 96.918.678 114.592l-.12 127.96c-.017 17.732 9.505 34.246 24.85 43.098l110.73 63.875a49.558 49.558 0 0 0 24.769 6.61zM-5104 1.416v347.55c0 8.727 5255.55 8.737 5240.447.023L25.716 285.115c-15.154-8.742-24.558-25.05-24.542-42.563l.121-127.96c.018-17.454 9.405-33.718 24.501-42.445l111.016-64.18c7.555-4.366 16.028-6.55-5240.812-6.55zM160.907 351.2C-5104 351.2-5104 349.209-5104 345.225v-64.18-38.708-127.96-38.814-63.875c0-7.946 5256.736-7.937 5242.969.021L27.953 75.89C14.187 83.847 5.625 98.678 5.61 114.596l-.12 127.96c-.016 15.97 8.56 30.843 22.379 38.815l110.73 63.875a44.649 44.649 0 0 0 22.308 5.953zM-5104 6.352V344.69c0 7.848 5256.493 7.856 5242.908.02l-110.73-63.875c-13.63-7.86-22.087-22.529-22.073-38.279l.121-127.96c.016-15.698 8.459-30.325 22.035-38.174l111.016-64.18C146.071 8.317 153.692 6.353-5104 6.353z"/></svg></svg></svg><svg width="295" height="325" xmlns="http://www.w3.org/2000/svg" xmlns:xlink="http://www.w3.org/1999/xlink" xmlns:svgjs="http://svgjs.com/svgjs" viewBox="212 205 295 325" x="212" y="205"><svg width="295" height="325" xmlns="http://www.w3.org/2000/svg" xmlns:xlink="http://www.w3.org/1999/xlink" xmlns:svgjs="http://svgjs.com/svgjs" viewBox="0 153.406 295 18.187" fill="#4b18a9" stroke-miterlimit="100" stroke="#000" x="212" y="205"><svg xmlns="http://www.w3.org/2000/svg" xmlns:xlink="http://www.w3.org/1999/xlink" width="295" height="325" viewBox="-5117 0.1 5264.9 324.586"><path paint-order="stroke fill markers" fill-rule="evenodd" d="M147.586 324.686C-5117 324.686-5117 322.475-5117 318.052v-56.454-42.987-112.592-43.086V6.714c0-8.826 5255.381-8.819 5240.093.02L25.44 63.188C10.152 72.026.646 88.498.632 106.175L.545 218.766c-.016 17.727 9.504 34.236 24.842 43.087l97.424 56.218a49.559 49.559 0 0 0 24.775 6.615zm.316-323.97C-5117 .717-5117 2.894-5117 7.25v310.269c0 8.727 5255.224 8.735 5240.119.019l-97.424-56.219c-15.148-8.74-24.549-25.046-24.534-42.552l.087-112.59c.015-17.458 9.402-33.725 24.5-42.454L123.402 7.27a48.942 48.942 0 0 1 24.5-6.552z"/></svg></svg></svg><svg width="295" height="325" xmlns="http://www.w3.org/2000/svg" xmlns:xlink="http://www.w3.org/1999/xlink" xmlns:svgjs="http://svgjs.com/svgjs" viewBox="212 205 295 325" x="212" y="205"><svg width="295" height="325" xmlns="http://www.w3.org/2000/svg" xmlns:xlink="http://www.w3.org/1999/xlink" xmlns:svgjs="http://svgjs.com/svgjs" viewBox="0 153.384 295 18.232" fill="#4b18a9" stroke-miterlimit="100" stroke="#000" x="212" y="205"><svg xmlns="http://www.w3.org/2000/svg" xmlns:xlink="http://www.w3.org/1999/xlink" width="295" height="325" viewBox="-5117 0.386 5242.74 324.013"><path paint-order="stroke fill markers" fill-rule="evenodd" d="M123.247 7.001l-97.65 56.453C10.352 72.267.955 88.55.942 106.174l-.09 112.593c-.014 17.668 9.4 33.997 24.689 42.819l97.424 56.218c15.251 8.8-5239.965 8.793-5239.965-.02v-56.452-42.721-112.592-42.82V6.983c0-8.802 5255.491-8.794 5240.247.02zm2.466 4.276C139.387 3.372-5117 3.365-5117 11.26v302.25c0 7.904 5256.107 7.912 5242.427.017l-97.424-56.218c-13.719-7.916-22.233-22.683-22.22-38.537l.09-112.592c.012-15.811 8.514-30.544 22.189-38.45l97.65-56.452z"/></svg></svg><svg width="295" height="325" xmlns="http://www.w3.org/2000/svg" xmlns:xlink="http://www.w3.org/1999/xlink" xmlns:svgjs="http://svgjs.com/svgjs" viewBox="0 153.406 295 18.187" fill="#4b18a9" stroke-miterlimit="100" stroke="#000" x="212" y="205"><svg xmlns="http://www.w3.org/2000/svg" xmlns:xlink="http://www.w3.org/1999/xlink" width="295" height="325" viewBox="-5117 0.1 5264.9 324.586"><path paint-order="stroke fill markers" fill-rule="evenodd" d="M147.586 324.686C-5117 324.686-5117 322.475-5117 318.052v-56.454-42.987-112.592-43.086V6.714c0-8.826 5255.381-8.819 5240.093.02L25.442 63.187C10.154 72.025.648 88.497.634 106.174l-.09 112.593c-.015 17.726 9.505 34.236 24.843 43.086l97.424 56.218a49.556 49.556 0 0 0 24.775 6.615zm.316-323.97C-5117 .717-5117 2.894-5117 7.25v310.269c0 8.728 5255.224 8.735 5240.12.019l-97.425-56.219c-15.147-8.74-24.55-25.045-24.535-42.55l.09-112.593c.014-17.457 9.402-33.725 24.5-42.454L123.401 7.27a48.94 48.94 0 0 1 24.5-6.552zm-.316 319.035C-5117 319.75-5117 317.759-5117 313.775v-56.453-38.715-112.592V67.21 10.992c0-7.95 5256.328-7.943 5242.559.018L27.908 67.463c-13.77 7.96-22.331 22.795-22.344 38.715l-.09 112.593c-.012 15.964 8.561 30.833 22.374 38.805l97.425 56.218a44.656 44.656 0 0 0 22.313 5.957zm.316-314.1C-5117 5.651-5117 7.61-5117 11.526V313.241c0 7.85 5256.167 7.858 5242.581.017l-97.425-56.217c-13.622-7.861-22.078-22.526-22.065-38.27l.09-112.592c.013-15.701 8.456-30.332 22.035-38.182l97.65-56.452a44.012 44.012 0 0 1 22.036-5.894z"/></svg></svg></svg><svg width="268" height="295" xmlns="http://www.w3.org/2000/svg" xmlns:xlink="http://www.w3.org/1999/xlink" xmlns:svgjs="http://svgjs.com/svgjs" viewBox="226 220 268 295" x="226" y="220"><svg width="268" height="295" xmlns="http://www.w3.org/2000/svg" xmlns:xlink="http://www.w3.org/1999/xlink" xmlns:svgjs="http://svgjs.com/svgjs" viewBox="0 140.021 268 14.957" fill="#4b18a9" stroke-miterlimit="100" stroke="#000" x="226" y="220"><svg xmlns="http://www.w3.org/2000/svg" xmlns:xlink="http://www.w3.org/1999/xlink" width="268" height="295" viewBox="-5131 0.401 5264.88 293.836"><path paint-order="stroke fill markers" fill-rule="evenodd" d="M133.883 294.238C-5131 294.238-5131 292.027-5131 287.603v-48.727-42.995-97.227-43.072V7.02c0-8.83 5255.59-8.825 5240.299.016L25.015 55.761C9.723 64.601.216 81.077.205 98.758l-.06 97.227c-.01 17.718 9.507 34.222 24.836 43.072l84.12 48.562a49.564 49.564 0 0 0 24.782 6.619zM-5131 1.018v286.051c0 8.73 5255.515 8.737 5240.409.015l-84.12-48.563C10.149 229.782.75 213.483.762 195.985l.06-97.227c.01-17.461 9.4-33.731 24.5-42.462L109.608 7.57C117.162 3.202 125.636 1.018-5131 1.018z"/></svg></svg></svg><svg width="268" height="295" xmlns="http://www.w3.org/2000/svg" xmlns:xlink="http://www.w3.org/1999/xlink" xmlns:svgjs="http://svgjs.com/svgjs" viewBox="226 220 268 295" x="226" y="220"><svg width="268" height="294" xmlns="http://www.w3.org/2000/svg" xmlns:xlink="http://www.w3.org/1999/xlink" xmlns:svgjs="http://svgjs.com/svgjs" viewBox="0 139.505 268 14.99" fill="#4b18a9" stroke-miterlimit="100" stroke="#000" x="226" y="220"><svg xmlns="http://www.w3.org/2000/svg" xmlns:xlink="http://www.w3.org/1999/xlink" width="268" height="294" viewBox="-5131 0.688 5242.94 293.263"><path paint-order="stroke fill markers" fill-rule="evenodd" d="M109.452 7.303L25.17 56.029C9.922 64.843.524 81.129.514 98.758l-.06 97.226c-.011 17.662 9.4 33.984 24.68 42.805l84.12 48.562C124.506 296.156-5131 296.15-5131 287.335V238.61v-42.73-97.226-42.806-48.56c0-8.806 5255.7-8.8 5240.452.015zm2.466 4.276C125.595 3.672-5131 3.667-5131 11.565V283.06c0 7.906 5256.399 7.912 5242.717.013l-84.12-48.56c-13.71-7.916-22.222-22.678-22.212-38.526l.06-97.226c.009-15.814 8.512-30.55 22.19-38.456l84.283-48.726z"/></svg></svg><svg width="268" height="295" xmlns="http://www.w3.org/2000/svg" xmlns:xlink="http://www.w3.org/1999/xlink" xmlns:svgjs="http://svgjs.com/svgjs" viewBox="0 140.021 268 14.957" fill="#4b18a9" stroke-miterlimit="100" stroke="#000" x="226" y="220"><svg xmlns="http://www.w3.org/2000/svg" xmlns:xlink="http://www.w3.org/1999/xlink" width="268" height="295" viewBox="-5131 0.401 5264.88 293.836"><path paint-order="stroke fill markers" fill-rule="evenodd" d="M133.883 294.237C-5131 294.237-5131 292.026-5131 287.602v-48.725-42.996-97.227-43.073-48.56c0-8.832 5255.59-8.826 5240.299.014L25.015 55.761C9.723 64.601.216 81.077.205 98.758l-.06 97.227c-.01 17.718 9.507 34.222 24.836 43.072l84.119 48.56a49.563 49.563 0 0 0 24.783 6.62zM-5131 1.017v286.051c0 8.73 5255.516 8.737 5240.408.015l-84.12-48.562C10.15 229.782.752 213.483.763 195.985l.06-97.227c.01-17.46 9.4-33.731 24.5-42.462L109.608 7.57C117.162 3.203 125.636 1.018-5131 1.018zM133.883 289.303C-5131 289.302-5131 287.31-5131 283.327V234.6v-38.722-97.226-38.793-48.561c0-7.954 5256.537-7.948 5242.764.013L27.48 60.037C13.708 68 5.146 82.837 5.137 98.76l-.06 97.227c-.01 15.958 8.561 30.822 22.367 38.793l84.12 48.56a44.638 44.638 0 0 0 22.319 5.962zM-5131 5.953v276.84c0 7.85 5256.458 7.856 5242.872.012l-84.12-48.56c-13.616-7.861-22.069-22.52-22.059-38.258l.06-97.226c.01-15.704 8.452-30.338 22.035-38.19l84.285-48.725C118.867 7.918 126.488 5.953-5131 5.953z"/></svg></svg></svg><svg width="242" height="264" xmlns="http://www.w3.org/2000/svg" xmlns:xlink="http://www.w3.org/1999/xlink" xmlns:svgjs="http://svgjs.com/svgjs" viewBox="239 235 242 264" x="239" y="235"><svg width="242" height="264" xmlns="http://www.w3.org/2000/svg" xmlns:xlink="http://www.w3.org/1999/xlink" xmlns:svgjs="http://svgjs.com/svgjs" viewBox="0 125.927 242 12.147" fill="#4b18a9" stroke-miterlimit="100" stroke="#000" x="239" y="235"><svg xmlns="http://www.w3.org/2000/svg" xmlns:xlink="http://www.w3.org/1999/xlink" width="242" height="264" viewBox="-5144 0.703 5241.33 263.084"><path paint-order="stroke fill markers" fill-rule="evenodd" d="M-5144 263.788v-6.635-40.998-43.007-81.862V48.23 7.328c0-8.836 5255.74-8.833 5240.444.01L25.527 48.335C10.232 57.178.726 73.657.72 91.343l-.032 81.86c-.007 17.71 9.506 34.208 24.826 43.057l70.816 40.903c7.646 4.416 16.22 6.625-5240.329 6.625zm0-262.468v255.298c0 8.733 5255.746 8.738 5240.637.01l-70.816-40.902c-15.13-8.74-24.525-25.033-24.518-42.523l.032-81.86c.007-17.465 9.395-33.74 24.5-42.474L96.752 7.872C104.307 3.504 112.78 1.32-5144 1.32z"/></svg></svg></svg><svg width="242" height="264" xmlns="http://www.w3.org/2000/svg" xmlns:xlink="http://www.w3.org/1999/xlink" xmlns:svgjs="http://svgjs.com/svgjs" viewBox="239 235 242 264" x="239" y="235"><svg width="242" height="264" xmlns="http://www.w3.org/2000/svg" xmlns:xlink="http://www.w3.org/1999/xlink" xmlns:svgjs="http://svgjs.com/svgjs" viewBox="0 125.942 242 12.116" fill="#4b18a9" stroke-miterlimit="100" stroke="#000" x="239" y="235"><svg xmlns="http://www.w3.org/2000/svg" xmlns:xlink="http://www.w3.org/1999/xlink" width="242" height="264" viewBox="-5144 0.99 5243.09 262.511"><path paint-order="stroke fill markers" fill-rule="evenodd" d="M96.597 7.605L25.682 48.602C10.432 57.42 1.034 73.71 1.027 91.342l-.032 81.861c-.007 17.654 9.4 33.969 24.672 42.79l70.816 40.902c15.253 8.811-5240.483 8.807-5240.483-.01v-40.997-42.74-81.86-42.79V7.595c0-8.81 5255.848-8.807 5240.597.01zm2.466 4.276C112.743 3.972-5144 3.969-5144 11.872V252.609c0 7.91 5256.63 7.912 5242.947.009L28.13 211.716c-13.702-7.915-22.21-22.671-22.204-38.51l.032-81.861c.006-15.818 8.508-30.558 22.19-38.467l70.915-40.997z"/></svg></svg><svg width="242" height="264" xmlns="http://www.w3.org/2000/svg" xmlns:xlink="http://www.w3.org/1999/xlink" xmlns:svgjs="http://svgjs.com/svgjs" viewBox="0 125.929 242 12.141" fill="#4b18a9" stroke-miterlimit="100" stroke="#000" x="239" y="235"><svg xmlns="http://www.w3.org/2000/svg" xmlns:xlink="http://www.w3.org/1999/xlink" width="242" height="264" viewBox="-5144 0.703 5243.71 263.084"><path paint-order="stroke fill markers" fill-rule="evenodd" d="M-5144 263.788v-6.636-40.997-43.008-81.86V48.23 7.328c0-8.836 5255.74-8.833 5240.443.01L25.527 48.335C10.232 57.178.726 73.657.718 91.343l-.031 81.86c-.008 17.71 9.506 34.208 24.826 43.057l70.816 40.903c7.645 4.416 16.22 6.625-5240.329 6.625zm0-262.468v255.298c0 8.733 5255.745 8.736 5240.637.01L25.82 215.727c-15.13-8.74-24.524-25.033-24.517-42.523l.032-81.86c.007-17.466 9.395-33.74 24.5-42.474L96.751 7.872C104.307 3.504 112.78 1.32-5144 1.32zm0 257.532v-5.975-40.998-38.733-81.862-38.776-40.903c0-7.958 5256.684-7.954 5242.908.009L27.993 52.61C14.218 60.575 5.656 75.417 5.649 91.345l-.031 81.86c-.006 15.95 8.56 30.808 22.358 38.777l70.817 40.904c6.886 3.977 14.608 5.966-5242.793 5.966zm0-252.596v246.087c0 7.853 5256.689 7.858 5243.1.008l-70.816-40.903c-13.607-7.858-22.056-22.513-22.05-38.243l.032-81.86C6.272 75.637 14.716 61 28.3 53.145l70.916-40.997C106.013 8.22 113.632 6.256-5144 6.256z"/></svg></svg></svg><svg width="215" height="233" xmlns="http://www.w3.org/2000/svg" xmlns:xlink="http://www.w3.org/1999/xlink" xmlns:svgjs="http://svgjs.com/svgjs" viewBox="253 251 215 233" x="253" y="251"><svg width="215" height="233" xmlns="http://www.w3.org/2000/svg" xmlns:xlink="http://www.w3.org/1999/xlink" xmlns:svgjs="http://svgjs.com/svgjs" viewBox="0 111.735 215 9.53" fill="#4b18a9" stroke-miterlimit="100" stroke="#000" x="253" y="251"><svg xmlns="http://www.w3.org/2000/svg" xmlns:xlink="http://www.w3.org/1999/xlink" width="215" height="233" viewBox="-5158 0.006 5241.53 232.328"><path paint-order="stroke fill markers" fill-rule="evenodd" d="M-5158 232.334v-6.635-33.267-43.02-66.497-43.036V6.64c0-8.845 5255.942-8.844 5240.64.002L25.098 39.908C9.797 48.753.291 65.238.29 82.929l-.01 66.497c-.001 17.698 9.507 34.188 24.815 43.035L82.61 225.7c7.65 4.422 16.228 6.633-5240.61 6.633zm0-231.712v224.543c0 8.735 5256.03 8.736 5240.918.002l-57.516-33.24C10.285 183.19.894 166.904.896 149.426l.01-66.497c.001-17.471 9.388-33.751 24.5-42.486L82.948 7.176C90.505 2.807 98.979.622-5158 .622z"/></svg></svg></svg><svg width="215" height="233" xmlns="http://www.w3.org/2000/svg" xmlns:xlink="http://www.w3.org/1999/xlink" xmlns:svgjs="http://svgjs.com/svgjs" viewBox="253 251 215 233" x="253" y="251"><svg width="215" height="233" xmlns="http://www.w3.org/2000/svg" xmlns:xlink="http://www.w3.org/1999/xlink" xmlns:svgjs="http://svgjs.com/svgjs" viewBox="0 111.748 215 9.503" fill="#4b18a9" stroke-miterlimit="100" stroke="#000" x="253" y="251"><svg xmlns="http://www.w3.org/2000/svg" xmlns:xlink="http://www.w3.org/1999/xlink" width="215" height="233" viewBox="-5158 0.293 5243.29 231.756"><path paint-order="stroke fill markers" fill-rule="evenodd" d="M82.795 6.908L25.251 40.176C9.997 48.994.6 65.29.596 82.929L.59 149.427c-.002 17.644 9.399 33.948 24.66 42.769l57.516 33.242C98.021 234.255-5158 234.254-5158 225.435v-33.267-42.754-66.498-42.768V6.906c0-8.817 5256.05-8.817 5240.795.002zm2.466 4.277C98.946 3.273-5158 3.272-5158 11.18V221.16c0 7.912 5256.916 7.912 5243.23.002L27.714 187.92c-13.692-7.913-22.196-22.662-22.194-38.491l.007-66.498c.002-15.823 8.505-30.567 22.19-38.478L85.26 11.185z"/></svg></svg><svg width="215" height="233" xmlns="http://www.w3.org/2000/svg" xmlns:xlink="http://www.w3.org/1999/xlink" xmlns:svgjs="http://svgjs.com/svgjs" viewBox="0 111.737 215 9.526" fill="#4b18a9" stroke-miterlimit="100" stroke="#000" x="253" y="251"><svg xmlns="http://www.w3.org/2000/svg" xmlns:xlink="http://www.w3.org/1999/xlink" width="215" height="233" viewBox="-5158 0.006 5243.91 232.33"><path paint-order="stroke fill markers" fill-rule="evenodd" d="M-5158 232.336v-6.635-33.266-43.021-66.498V39.88 6.64c0-8.844 5255.943-8.844 5240.641.002L25.097 39.908C9.797 48.753.291 65.238.288 82.929l-.007 66.498c-.002 17.698 9.506 34.188 24.814 43.035l57.516 33.242c7.65 4.422 16.228 6.632-5240.611 6.632zm0-231.713V225.167c0 8.736 5256.032 8.737 5240.92.003l-57.517-33.242C10.285 183.191.895 166.905.897 149.427l.008-66.498c.002-17.471 9.39-33.751 24.5-42.486L82.95 7.176C90.505 2.807 98.98.623-5158 .623zm0 226.778v-5.975-33.268-38.745-66.497-38.759-33.243c0-7.964 5256.887-7.963 5243.107.003L27.563 44.184C13.783 52.151 5.22 66.997 5.219 82.93l-.007 66.497c-.002 15.94 8.561 30.791 22.348 38.76l57.517 33.242C91.966 225.41 99.69 227.4-5158 227.4zm0-221.843v215.334c0 7.856 5256.975 7.857 5243.385.002l-57.517-33.241c-13.596-7.858-22.042-22.506-22.04-38.226l.008-66.497c.001-15.713 8.444-30.355 22.035-38.211l57.544-33.267C92.211 7.523 99.831 5.558-5158 5.558z"/></svg></svg></svg><svg width="188" height="202" xmlns="http://www.w3.org/2000/svg" xmlns:xlink="http://www.w3.org/1999/xlink" xmlns:svgjs="http://svgjs.com/svgjs" viewBox="266 266 188 202" x="266" y="266"><svg width="188" height="202" xmlns="http://www.w3.org/2000/svg" xmlns:xlink="http://www.w3.org/1999/xlink" xmlns:svgjs="http://svgjs.com/svgjs" viewBox="0 97.385 188 7.23" fill="#4b18a9" stroke-miterlimit="100" stroke="#000" x="266" y="266"><svg xmlns="http://www.w3.org/2000/svg" xmlns:xlink="http://www.w3.org/1999/xlink" width="188" height="202" viewBox="-5171 0.311 5241.18 201.575"><path paint-order="stroke fill markers" fill-rule="evenodd" d="M-5171 201.886v-6.636-25.534-43.038V75.54 32.531 6.952c0-8.853 5255.606-8.855 5240.299-.006L25.13 32.479C9.824 41.33.318 57.82.322 75.52l.013 51.137c.004 17.683 9.506 34.164 24.798 43.009l44.222 25.58c7.653 4.426 16.237 6.641-5240.355 6.641zm0-200.959v193.789c0 8.74 5255.777 8.737 5240.663-.006l-44.222-25.58C10.339 160.396.955 144.12.951 126.657L.938 75.518C.934 58.04 10.322 41.753 25.44 33.014L69.607 7.48C77.164 3.112 85.636.927-5171 .927z"/></svg></svg></svg><svg width="188" height="202" xmlns="http://www.w3.org/2000/svg" xmlns:xlink="http://www.w3.org/1999/xlink" xmlns:svgjs="http://svgjs.com/svgjs" viewBox="266 266 188 202" x="266" y="266"><svg width="188" height="202" xmlns="http://www.w3.org/2000/svg" xmlns:xlink="http://www.w3.org/1999/xlink" xmlns:svgjs="http://svgjs.com/svgjs" viewBox="0 97.396 188 7.207" fill="#4b18a9" stroke-miterlimit="100" stroke="#000" x="266" y="266"><svg xmlns="http://www.w3.org/2000/svg" xmlns:xlink="http://www.w3.org/1999/xlink" width="188" height="202" viewBox="-5171 0.598 5243 201"><path paint-order="stroke fill markers" fill-rule="evenodd" d="M69.453 7.213L25.285 32.747C10.025 41.569.625 57.875.63 75.519l.012 51.137c.005 17.631 9.398 33.922 24.645 42.742l44.221 25.579c15.259 8.825-5240.508 8.828-5240.508.006v-25.534-42.772V75.54 32.798 7.218c0-8.825 5255.713-8.827 5240.453-.005zm2.465 4.276C85.61 3.574-5171 3.576-5171 11.495v179.212c0 7.915 5256.663 7.912 5242.975-.005l-44.221-25.58c-13.678-7.911-22.177-22.651-22.18-38.468L5.56 75.518c-.004-15.83 8.499-30.58 22.19-38.495l44.167-25.534z"/></svg></svg><svg width="188" height="202" xmlns="http://www.w3.org/2000/svg" xmlns:xlink="http://www.w3.org/1999/xlink" xmlns:svgjs="http://svgjs.com/svgjs" viewBox="0 97.386 188 7.227" fill="#4b18a9" stroke-miterlimit="100" stroke="#000" x="266" y="266"><svg xmlns="http://www.w3.org/2000/svg" xmlns:xlink="http://www.w3.org/1999/xlink" width="188" height="202" viewBox="-5171 0.31 5243.56 201.574"><path paint-order="stroke fill markers" fill-rule="evenodd" d="M-5171 201.885v-6.636-25.533-43.039V75.54 32.53 6.952C-5171-1.9 84.606-1.903 69.299 6.946L25.13 32.479C9.824 41.33.318 57.82.322 75.52l.012 51.137c.005 17.683 9.507 34.163 24.799 43.009l44.221 25.579c7.653 4.426 16.237 6.64-5240.354 6.64zm0-200.958v193.789c0 8.739 5255.776 8.736 5240.662-.007l-44.221-25.578C10.339 160.395.955 144.119.951 126.656L.938 75.519C.934 58.04 10.322 41.753 25.44 33.014L69.607 7.48C77.164 3.111 85.636.927-5171 .927zm0 196.023v-5.976-25.534-38.762-51.137-38.734-25.58c0-7.973 5256.55-7.975 5242.764-.005L27.596 36.756C13.811 44.726 5.25 59.578 5.253 75.517l.012 51.138c.004 15.925 8.562 30.768 22.334 38.734l44.222 25.58c6.892 3.987 14.624 5.98-5242.821 5.98zm0-191.087V190.44c0 7.858 5256.723 7.857 5243.13-.005l-44.223-25.58c-13.582-7.857-22.022-22.494-22.025-38.2l-.013-51.138c-.003-15.72 8.44-30.367 22.035-38.227l44.169-25.534C78.869 7.827 86.488 5.863-5171 5.863z"/></svg></svg></svg><svg width="162" height="172" xmlns="http://www.w3.org/2000/svg" xmlns:xlink="http://www.w3.org/1999/xlink" xmlns:svgjs="http://svgjs.com/svgjs" viewBox="279 282 162 172" x="279" y="282"><svg width="162" height="172" xmlns="http://www.w3.org/2000/svg" xmlns:xlink="http://www.w3.org/1999/xlink" xmlns:svgjs="http://svgjs.com/svgjs" viewBox="0 83.36 162 5.279" fill="#4b18a9" stroke-miterlimit="100" stroke="#000" x="279" y="282"><svg xmlns="http://www.w3.org/2000/svg" xmlns:xlink="http://www.w3.org/1999/xlink" width="162" height="172" viewBox="-5184 0.234 5241.39 170.813"><path paint-order="stroke fill markers" fill-rule="evenodd" d="M-5184 171.047v-6.636-17.797-43.062-35.778V24.8 6.888c0-8.866 5255.817-8.872 5240.503-.017L25.718 24.667C10.402 33.522.896 50.022.91 67.73l.026 35.78c.012 17.664 9.506 34.13 24.778 42.973l30.932 17.91c7.659 4.436 16.251 6.653-5240.645 6.654zm0-170.195v163.025c0 8.743 5256.074 8.737 5240.953-.018L26.02 145.95C10.94 137.216 1.563 120.954 1.55 103.51l-.025-35.78c-.014-17.489 9.374-33.784 24.5-42.528L56.812 7.405C64.368 3.035 72.84.852-5184 .852z"/></svg></svg></svg><svg width="162" height="172" xmlns="http://www.w3.org/2000/svg" xmlns:xlink="http://www.w3.org/1999/xlink" xmlns:svgjs="http://svgjs.com/svgjs" viewBox="279 282 162 172" x="279" y="282"><svg width="161" height="171" xmlns="http://www.w3.org/2000/svg" xmlns:xlink="http://www.w3.org/1999/xlink" xmlns:svgjs="http://svgjs.com/svgjs" viewBox="0 82.886 161 5.227" fill="#4b18a9" stroke-miterlimit="100" stroke="#000" x="280" y="282"><svg xmlns="http://www.w3.org/2000/svg" xmlns:xlink="http://www.w3.org/1999/xlink" width="161" height="171" viewBox="-5185 0.522 5243.29 170.239"><path paint-order="stroke fill markers" fill-rule="evenodd" d="M55.657 7.137L24.872 24.934C9.605 33.76.205 50.077.217 67.73l.026 35.78c.013 17.614 9.396 33.888 24.624 42.707L55.8 164.129c15.261 8.837-5240.8 8.844-5240.8.017V146.35v-42.795-35.78-42.706V7.155c0-8.838 5255.924-8.844 5240.657-.018zm2.465 4.276C71.821 3.494-5185 3.5-5185 11.429V159.87c0 7.92 5256.961 7.913 5243.268-.015l-30.933-17.912c-13.658-7.91-22.15-22.638-22.161-38.437l-.026-35.78c-.011-15.838 8.491-30.596 22.19-38.516l30.784-17.797z"/></svg></svg><svg width="162" height="172" xmlns="http://www.w3.org/2000/svg" xmlns:xlink="http://www.w3.org/1999/xlink" xmlns:svgjs="http://svgjs.com/svgjs" viewBox="0 83.361 162 5.277" fill="#4b18a9" stroke-miterlimit="100" stroke="#000" x="279" y="282"><svg xmlns="http://www.w3.org/2000/svg" xmlns:xlink="http://www.w3.org/1999/xlink" width="162" height="172" viewBox="-5184 0.234 5243.77 170.816"><path paint-order="stroke fill markers" fill-rule="evenodd" d="M-5184 171.05v-6.636-17.798-43.062-35.78V24.8 6.888c0-8.866 5255.818-8.872 5240.503-.018L25.718 24.667C10.403 33.522.897 50.022.91 67.73l.026 35.78c.013 17.664 9.507 34.13 24.778 42.973l30.933 17.912c7.659 4.436 16.25 6.654-5240.646 6.654zm0-170.2v163.03c0 8.743 5256.073 8.736 5240.954-.019L26.022 145.95C10.94 137.216 1.564 120.954 1.55 103.51l-.025-35.78c-.013-17.488 9.375-33.783 24.5-42.528L56.812 7.404C64.368 3.036 72.841.851-5184 .851zm0 165.264v-5.976-17.798-38.782-35.78-38.704-17.912c0-7.984 5256.762-7.99 5242.968-.016L28.184 28.943C14.39 36.917 5.829 51.778 5.84 67.727l.026 35.78c.01 15.908 8.562 30.738 22.316 38.703l30.933 17.912c6.898 3.994 14.635 5.992-5243.115 5.992zm0-160.327v153.816c0 7.864 5257.02 7.858 5243.423-.015L28.49 141.675c-13.564-7.854-21.997-22.48-22.008-38.169l-.025-35.78c-.012-15.728 8.431-30.384 22.035-38.249L59.277 11.68C66.073 7.751 73.693 5.787-5184 5.787z"/></svg></svg></svg><svg width="136" height="141" xmlns="http://www.w3.org/2000/svg" xmlns:xlink="http://www.w3.org/1999/xlink" xmlns:svgjs="http://svgjs.com/svgjs" viewBox="292 296 136 141" x="292" y="296"><svg width="136" height="141" xmlns="http://www.w3.org/2000/svg" xmlns:xlink="http://www.w3.org/1999/xlink" xmlns:svgjs="http://svgjs.com/svgjs" viewBox="0 68.691 136 3.618" fill="#4b18a9" stroke-miterlimit="100" stroke="#000" x="292" y="296"><svg xmlns="http://www.w3.org/2000/svg" xmlns:xlink="http://www.w3.org/1999/xlink" width="136" height="141" viewBox="-5197 0.926 5264.9 140.051"><path paint-order="stroke fill markers" fill-rule="evenodd" d="M-5197 140.977v-6.635-10.054V81.19 60.76 17.834 7.597C-5197-1.284 58.416-1.3 43.089 7.561L25.698 17.615C10.37 26.477.865 42.991.89 60.713l.027 20.43c.025 17.636 9.508 34.084 24.75 42.924l17.655 10.238c7.667 4.448 16.27 6.672-5240.323 6.672zM67.896 1.543C-5197 1.543-5197 3.739-5197 8.133v125.675c0 8.75 5255.756 8.736 5240.632-.037l-17.655-10.238C10.924 114.803 1.559 98.559 1.535 81.14l-.028-20.43c-.026-17.5 9.362-33.81 24.5-42.561l17.39-10.054a48.939 48.939 0 0 1 24.499-6.553z"/></svg></svg></svg><svg width="136" height="141" xmlns="http://www.w3.org/2000/svg" xmlns:xlink="http://www.w3.org/1999/xlink" xmlns:svgjs="http://svgjs.com/svgjs" viewBox="292 296 136 141" x="292" y="296"><svg width="134" height="140" xmlns="http://www.w3.org/2000/svg" xmlns:xlink="http://www.w3.org/1999/xlink" xmlns:svgjs="http://svgjs.com/svgjs" viewBox="0 68.218 134 3.565" fill="#4b18a9" stroke-miterlimit="100" stroke="#000" x="293" y="297"><svg xmlns="http://www.w3.org/2000/svg" xmlns:xlink="http://www.w3.org/1999/xlink" width="134" height="140" viewBox="-5198 0.213 5242.97 139.473"><path paint-order="stroke fill markers" fill-rule="evenodd" d="M42.243 6.828L24.852 16.882C9.574 25.714.173 42.046.197 59.711l.028 20.43c.024 17.59 9.394 33.84 24.596 42.657l17.655 10.238C57.741 141.89-5198 141.903-5198 133.071v-10.054-42.828-20.43-42.658V6.862c0-8.853 5255.52-8.866 5240.243-.034zm2.466 4.276C58.417 3.18-5198 3.191-5198 11.135V128.795c0 7.925 5256.646 7.913 5242.947-.03l-17.654-10.24C13.66 110.62 5.178 95.908 5.156 80.133l-.028-20.43c-.022-15.85 8.48-30.62 22.19-38.545l17.39-10.054z"/></svg></svg><svg width="136" height="141" xmlns="http://www.w3.org/2000/svg" xmlns:xlink="http://www.w3.org/1999/xlink" xmlns:svgjs="http://svgjs.com/svgjs" viewBox="0 68.691 136 3.618" fill="#4b18a9" stroke-miterlimit="100" stroke="#000" x="292" y="296"><svg xmlns="http://www.w3.org/2000/svg" xmlns:xlink="http://www.w3.org/1999/xlink" width="136" height="141" viewBox="-5197 0.925 5264.9 140.05"><path paint-order="stroke fill markers" fill-rule="evenodd" d="M-5197 140.974v-6.636-10.054-43.096-20.43-42.923-10.24C-5197-1.287 58.417-1.3 43.09 7.561L25.697 17.615C10.37 26.475.864 42.99.889 60.711l.028 20.43c.024 17.636 9.508 34.085 24.75 42.924l17.655 10.239c7.667 4.446 16.268 6.67-5240.322 6.67zM67.898 1.542C-5197 1.542-5197 3.738-5197 8.129V133.804c0 8.75 5255.756 8.737 5240.631-.035l-17.655-10.238C10.923 114.8 1.558 98.558 1.534 81.139L1.505 60.71c-.024-17.5 9.364-33.81 24.501-42.56L43.398 8.096a48.935 48.935 0 0 1 24.5-6.554zM-5197 136.039v-5.977-10.054-38.813-20.43-38.658-10.24c0-7.998 5256.358-8.01 5242.555-.03L28.163 21.89C14.36 29.871 5.798 44.744 5.82 60.704l.028 20.43c.022 15.884 8.563 30.697 22.29 38.658l17.655 10.24c6.906 4.004 14.653 6.007-5242.793 6.007zM67.898 6.477C-5197 6.477-5197 8.452-5197 12.403v117.125c0 7.87 5256.705 7.858 5243.103-.03l-17.655-10.24c-13.539-7.851-21.962-22.46-21.983-38.125l-.029-20.43c-.021-15.74 8.422-30.407 22.035-38.277l17.392-10.054a44.013 44.013 0 0 1 22.035-5.895z"/></svg></svg></svg><svg width="109" height="113" xmlns="http://www.w3.org/2000/svg" xmlns:xlink="http://www.w3.org/1999/xlink" xmlns:svgjs="http://svgjs.com/svgjs" viewBox="305 311 109 113" x="305" y="311"><svg width="109" height="113" xmlns="http://www.w3.org/2000/svg" xmlns:xlink="http://www.w3.org/1999/xlink" xmlns:svgjs="http://svgjs.com/svgjs" viewBox="0 55.342 109 2.316" fill="#4b18a9" stroke-miterlimit="100" stroke="#000" x="305" y="311"><svg xmlns="http://www.w3.org/2000/svg" xmlns:xlink="http://www.w3.org/1999/xlink" width="109" height="113" viewBox="-5210 0.287 5264.55 111.878"><path paint-order="stroke fill markers" fill-rule="evenodd" d="M54.53 112.164c-5264.53 0-5264.53-1.772-5264.53-5.316v-8.083-34.47-16.142-34.482V5.6c0-7.087 5256.933-7.085 5244.673.001l-13.98 8.083C8.432 20.773.816 33.98.814 48.155L.813 64.3C.812 78.48 8.43 91.693 20.695 98.78l13.963 8.07a39.703 39.703 0 0 0 19.872 5.313zM54.55.904C-5210 .903-5210 2.646-5210 6.134v100.179c0 6.977 5257.036 6.978 5244.966.003l-13.963-8.07C8.93 91.268 1.428 78.26 1.43 64.3l.002-16.145c.002-13.954 7.5-26.958 19.57-33.935l13.98-8.083A39.1 39.1 0 0 1 54.552.903z"/></svg></svg></svg><svg width="109" height="113" xmlns="http://www.w3.org/2000/svg" xmlns:xlink="http://www.w3.org/1999/xlink" xmlns:svgjs="http://svgjs.com/svgjs" viewBox="305 311 109 113" x="305" y="311"><svg width="107" height="112" xmlns="http://www.w3.org/2000/svg" xmlns:xlink="http://www.w3.org/1999/xlink" xmlns:svgjs="http://svgjs.com/svgjs" viewBox="0 54.865 107 2.27" fill="#4b18a9" stroke-miterlimit="100" stroke="#000" x="306" y="311"><svg xmlns="http://www.w3.org/2000/svg" xmlns:xlink="http://www.w3.org/1999/xlink" width="107" height="112" viewBox="-5211 0.578 5247.31 111.296"><path paint-order="stroke fill markers" fill-rule="evenodd" d="M33.827 5.87l-13.98 8.082A39.51 39.51 0 0 0 .121 48.156L.121 64.3a39.509 39.509 0 0 0 19.728 34.214l13.963 8.07C46.016 113.639-5211 113.638-5211 106.583V98.5 64.296 48.152 13.938v-8.07c0-7.054 5257.03-7.053 5244.827.001zm2.466 4.276C46.937 3.993-5211 3.992-5211 10.144v92.163c0 6.153 5257.922 6.153 5247.277.002l-13.964-8.071C11.664 88.083 5.05 76.612 5.052 64.3l.001-16.143c.002-12.308 6.614-23.775 17.259-29.928l13.98-8.083z"/></svg></svg><svg width="109" height="113" xmlns="http://www.w3.org/2000/svg" xmlns:xlink="http://www.w3.org/1999/xlink" xmlns:svgjs="http://svgjs.com/svgjs" viewBox="0 55.342 109 2.316" fill="#4b18a9" stroke-miterlimit="100" stroke="#000" x="305" y="311"><svg xmlns="http://www.w3.org/2000/svg" width="109" height="113" viewBox="-5210 0.287 5264.55 111.879"><path paint-order="stroke fill markers" fill-rule="evenodd" d="M54.531 112.165C-5210 112.165-5210 110.393-5210 106.85v-8.082-34.47-16.144V13.67 5.6c0-7.085 5256.934-7.085 5244.673.002l-13.98 8.083C8.432 20.773.815 33.98.813 48.155L.812 64.3C.81 78.48 8.43 91.692 20.695 98.78l13.963 8.07a39.707 39.707 0 0 0 19.873 5.314zM54.551.903C-5210 .903-5210 2.647-5210 6.135v100.18c0 6.977 5257.037 6.978 5244.966.002l-13.963-8.07C8.927 91.267 1.427 78.26 1.429 64.3l.002-16.144C1.432 34.2 8.93 21.197 21 14.22l13.98-8.083A39.1 39.1 0 0 1 54.552.903zm-.02 106.327C-5210 107.23-5210 105.678-5210 102.573v-8.082-30.195-16.144-30.205-8.07c0-6.207 5257.878-6.206 5247.139.001l-13.982 8.083C12.42 24.17 5.747 35.74 5.745 48.156L5.743 64.3c0 12.422 6.672 23.996 17.416 30.205l13.964 8.07a34.776 34.776 0 0 0 17.408 4.655zm.02-101.391C-5210 5.839-5210 7.363-5210 10.412v91.627c0 6.098 5257.98 6.1 5247.43.002l-13.962-8.07C12.914 87.87 6.358 76.5 6.36 64.3l.002-16.145c.001-12.197 6.555-23.562 17.104-29.66l13.98-8.083A34.172 34.172 0 0 1 54.552 5.84z"/></svg></svg></svg></svg></svg>