<svg width="91" height="13" xmlns="http://www.w3.org/2000/svg" xmlns:xlink="http://www.w3.org/1999/xlink" xmlns:svgjs="http://svgjs.com/svgjs" viewBox="0 0.433 91 12.133" fill="#100246"><svg xmlns="http://www.w3.org/2000/svg" width="91" height="13" viewBox="0.999 0.999 90 12"><path paint-order="stroke fill markers" fill-rule="evenodd" d="M1 1.198h5.558c1.328 0 2.502.24 3.522.72 1.02.481 1.812 1.158 2.377 2.031.565.873.848 1.89.848 3.05s-.283 2.177-.848 3.05c-.565.873-1.357 1.55-2.377 2.03-1.02.48-2.194.721-3.522.721H.999V1.198zm5.418 9.398c1.224 0 2.2-.324 2.928-.97.728-.647 1.092-1.522 1.092-2.627 0-1.105-.364-1.98-1.092-2.627-.729-.647-1.704-.97-2.928-.97H3.831v7.194h2.587zm21.989.05V12.8h-9.474V1.198h9.247v2.155h-6.433v2.519h5.681V7.96h-5.68v2.685h6.659zm16.972-9.448V12.8h-2.325l-6.1-7.044V12.8h-2.796V1.198H36.5l6.082 7.044V1.198h2.797zm8.932 2.188h-3.916V1.198h10.663v2.188h-3.915V12.8H54.31V3.386zm15.696 9.613a10.51 10.51 0 0 1-2.805-.373c-.903-.249-1.629-.572-2.176-.97l.96-2.022c.525.365 1.149.658 1.871.879a7.38 7.38 0 0 0 2.168.331c.804 0 1.398-.113 1.783-.34.384-.226.576-.527.576-.903a.847.847 0 0 0-.34-.688 2.64 2.64 0 0 0-.874-.439c-.356-.11-.837-.232-1.442-.365-.933-.21-1.696-.42-2.29-.63a3.723 3.723 0 0 1-1.53-1.01c-.425-.465-.638-1.083-.638-1.857 0-.674.193-1.284.577-1.831.385-.547.964-.981 1.74-1.301.774-.32 1.721-.481 2.84-.481.78 0 1.544.088 2.29.265.745.177 1.398.431 1.957.763L73.8 4.065c-1.13-.607-2.26-.911-3.39-.911-.793 0-1.379.121-1.758.364-.378.244-.568.564-.568.962 0 .397.219.693.656.886.437.194 1.104.384 2.001.572.933.21 1.696.42 2.29.63.594.21 1.104.541 1.53.995.425.452.637 1.066.637 1.84 0 .662-.195 1.267-.585 1.814-.39.547-.976.98-1.757 1.301-.78.32-1.73.48-2.849.48zm16.238-4.31V12.8h-2.831V8.656l-4.737-7.458h3.006l3.269 5.154 3.268-5.154H91L86.244 8.69z"/></svg></svg>