<svg width="132" height="20" xmlns="http://www.w3.org/2000/svg" xmlns:xlink="http://www.w3.org/1999/xlink" xmlns:svgjs="http://svgjs.com/svgjs" viewBox="0 0.32 132 19.359" fill="#100246"><svg xmlns="http://www.w3.org/2000/svg" width="132" height="20" viewBox="0.088 0.599 130.913 19.2"><path paint-order="stroke fill markers" fill-rule="evenodd" d="M.088.917h8.085c1.932 0 3.64.385 5.123 1.154 1.483.77 2.636 1.852 3.458 3.249.822 1.396 1.233 3.023 1.233 4.88 0 1.856-.411 3.482-1.233 4.879-.822 1.396-1.975 2.48-3.458 3.248-1.483.77-3.19 1.154-5.123 1.154H.088V.917zm7.881 15.037c1.78 0 3.2-.517 4.26-1.552 1.059-1.034 1.588-2.435 1.588-4.203 0-1.768-.53-3.169-1.589-4.203-1.06-1.034-2.479-1.551-4.259-1.551H4.207v11.509h3.762zm31.985.08v3.447h-13.78V.917h13.45v3.448h-9.357v4.03h8.263v3.342h-8.263v4.296h9.687zM64.642.916v18.564H61.26l-8.873-11.27v11.27h-4.068V.917h3.407l8.848 11.271V.918h4.068zm12.992 3.501h-5.695v-3.5h15.509v3.5h-5.695v15.063h-4.119V4.418zm22.832 15.381a14 14 0 0 1-4.081-.597c-1.314-.397-2.37-.914-3.166-1.551l1.399-3.235c.762.583 1.67 1.052 2.72 1.405a9.84 9.84 0 0 0 3.153.53c1.17 0 2.034-.18 2.593-.543.56-.362.84-.844.84-1.445 0-.442-.166-.81-.497-1.1-.33-.293-.754-.527-1.27-.704a24.594 24.594 0 0 0-2.098-.583c-1.356-.336-2.466-.672-3.331-1.008a5.41 5.41 0 0 1-2.225-1.618c-.618-.742-.928-1.732-.928-2.97 0-1.078.28-2.055.84-2.93.559-.875 1.402-1.569 2.53-2.082C98.07.856 99.447.6 101.074.6c1.136 0 2.247.142 3.331.424 1.085.283 2.034.69 2.848 1.22l-1.271 3.262c-1.645-.972-3.289-1.458-4.933-1.458-1.152 0-2.004.194-2.555.583-.551.39-.826.902-.826 1.538 0 .637.317 1.11.953 1.419.636.31 1.606.614 2.911.915 1.356.336 2.466.672 3.331 1.008a5.512 5.512 0 0 1 2.225 1.59c.618.726.928 1.707.928 2.944 0 1.061-.284 2.03-.852 2.904-.568.876-1.42 1.57-2.555 2.082-1.136.513-2.517.769-4.144.769zm23.62-6.895v6.577h-4.12v-6.63L113.076.917h4.373l4.755 8.248 4.754-8.248h4.043l-6.916 11.987z"/></svg></svg>