<svg width="48" height="48" xmlns="http://www.w3.org/2000/svg" xmlns:xlink="http://www.w3.org/1999/xlink" xmlns:svgjs="http://svgjs.com/svgjs" viewBox="992 500 48 48"><svg width="48" height="48" xmlns="http://www.w3.org/2000/svg" xmlns:xlink="http://www.w3.org/1999/xlink" xmlns:svgjs="http://svgjs.com/svgjs" fill="#f6f3ff" x="992" y="500"><svg xmlns="http://www.w3.org/2000/svg" xmlns:xlink="http://www.w3.org/1999/xlink" width="48" height="48"><path paint-order="stroke fill markers" fill-rule="evenodd" d="M24 48C10.728 48 0 37.272 0 24S10.728 0 24 0s24 10.728 24 24-10.728 24-24 24z"/></svg></svg><svg width="24" height="16" xmlns="http://www.w3.org/2000/svg" xmlns:xlink="http://www.w3.org/1999/xlink" xmlns:svgjs="http://svgjs.com/svgjs" viewBox="0 0 23.999 16" fill="#4c18aa" x="1004" y="516"><svg xmlns="http://www.w3.org/2000/svg" width="24" height="16" viewBox="0.75 0.5 22.5 15"><path paint-order="stroke fill markers" fill-rule="evenodd" d="M22.78 2.847c-.26-.924-1.022-1.652-1.99-1.898C19.036.499 12 .499 12 .499S4.964.5 3.21.95c-.969.246-1.732.974-1.99 1.898C.75 4.52.75 8.015.75 8.015s0 3.494.47 5.168c.258.924 1.021 1.621 1.99 1.868C4.963 15.5 12 15.5 12 15.5s7.036 0 8.79-.449c.968-.247 1.73-.944 1.99-1.868.47-1.674.47-5.168.47-5.168s0-3.494-.47-5.168zm-13.081 8.34V4.843l5.88 3.172-5.88 3.172z"/></svg></svg></svg>