<svg width="48" height="48" xmlns="http://www.w3.org/2000/svg" xmlns:xlink="http://www.w3.org/1999/xlink" xmlns:svgjs="http://svgjs.com/svgjs" viewBox="912 500 48 48"><svg width="48" height="48" xmlns="http://www.w3.org/2000/svg" xmlns:xlink="http://www.w3.org/1999/xlink" xmlns:svgjs="http://svgjs.com/svgjs" fill="#f6f3ff" x="912" y="500"><svg xmlns="http://www.w3.org/2000/svg" xmlns:xlink="http://www.w3.org/1999/xlink" width="48" height="48"><path paint-order="stroke fill markers" fill-rule="evenodd" d="M24 48C10.728 48 0 37.272 0 24S10.728 0 24 0s24 10.728 24 24-10.728 24-24 24z"/></svg></svg><svg width="20" height="20" xmlns="http://www.w3.org/2000/svg" xmlns:xlink="http://www.w3.org/1999/xlink" xmlns:svgjs="http://svgjs.com/svgjs" fill="#4c18aa" x="926" y="514"><svg xmlns="http://www.w3.org/2000/svg" width="20" height="20" viewBox="0.25 0.249 19.5 19.5"><path paint-order="stroke fill markers" fill-rule="evenodd" d="M19.681 5.979c-.074-1.562-.43-2.946-1.574-4.086C16.967.753 15.583.396 14.022.318c-1.61-.092-6.434-.092-8.044 0-1.557.074-2.94.43-4.085 1.57C.75 3.029.396 4.413.318 5.975c-.091 1.61-.091 6.436 0 8.046.074 1.562.43 2.946 1.575 4.085 1.144 1.14 2.523 1.497 4.085 1.576 1.61.091 6.434.091 8.044 0 1.561-.074 2.945-.43 4.085-1.576 1.14-1.14 1.496-2.523 1.574-4.085.092-1.61.092-6.431 0-8.041zm-2.08 9.768a3.29 3.29 0 0 1-1.852 1.854c-1.284.509-4.329.391-5.747.391-1.418 0-4.468.113-5.747-.391a3.29 3.29 0 0 1-1.853-1.854c-.509-1.284-.392-4.33-.392-5.748 0-1.418-.113-4.468.392-5.748a3.29 3.29 0 0 1 1.853-1.853c1.284-.51 4.329-.392 5.747-.392 1.418 0 4.468-.113 5.747.392a3.29 3.29 0 0 1 1.853 1.853c.509 1.284.392 4.33.392 5.748 0 1.419.117 4.469-.392 5.748zm-1.23-10.952c0 .648-.522 1.166-1.166 1.166a1.166 1.166 0 1 1 1.166-1.166zM10 5a4.99 4.99 0 0 0-4.997 5c0 2.767 2.231 4.999 4.998 4.999a4.99 4.99 0 0 0 4.998-5c0-2.767-2.231-5-4.998-5zm0 8.25A3.256 3.256 0 0 1 6.753 10a3.253 3.253 0 0 1 3.25-3.251 3.253 3.253 0 0 1 3.25 3.25 3.256 3.256 0 0 1-3.25 3.25z"/></svg></svg></svg>