<svg width="120" height="120" xmlns="http://www.w3.org/2000/svg" xmlns:xlink="http://www.w3.org/1999/xlink" xmlns:svgjs="http://svgjs.com/svgjs" viewBox="740 1830 120 120"><svg width="120" height="120" xmlns="http://www.w3.org/2000/svg" xmlns:xlink="http://www.w3.org/1999/xlink" xmlns:svgjs="http://svgjs.com/svgjs" fill="none" stroke-miterlimit="100" stroke="#fff" stroke-width="2" x="740" y="1830"><svg xmlns="http://www.w3.org/2000/svg" xmlns:xlink="http://www.w3.org/1999/xlink" width="120" height="120"><path paint-order="stroke fill markers" d="M60 120C26.82 120 0 93.18 0 60S26.82 0 60 0s60 26.82 60 60-26.82 60-60 60z"/></svg></svg><svg width="20" height="23" xmlns="http://www.w3.org/2000/svg" xmlns:xlink="http://www.w3.org/1999/xlink" xmlns:svgjs="http://svgjs.com/svgjs" viewBox="0 0.5 20 22" fill="#fff" x="792" y="1879"><svg xmlns="http://www.w3.org/2000/svg" width="20" height="23" viewBox="0 0 20 22"><path paint-order="stroke fill markers" fill-rule="evenodd" d="M18.947 9.224L3.232.282C1.955-.444 0 .261 0 2.057v17.878c0 1.612 1.817 2.583 3.232 1.775l15.715-8.937a2.022 2.022 0 0 0 0-3.55z"/></svg></svg></svg>