<svg width="14" height="82" xmlns="http://www.w3.org/2000/svg" xmlns:xlink="http://www.w3.org/1999/xlink" xmlns:svgjs="http://svgjs.com/svgjs" viewBox="0.338 0 13.325 82" fill="#fff"><svg xmlns="http://www.w3.org/2000/svg" width="14" height="82" viewBox="0 1 13 80"><path paint-order="stroke fill markers" fill-rule="evenodd" d="M12.751 73.688a.863.863 0 0 0-1.245-.007l-4.124 4.255V1.904A.893.893 0 0 0 6.502 1a.893.893 0 0 0-.88.904v76.032L1.5 73.675a.87.87 0 0 0-1.246.006.93.93 0 0 0 .007 1.283l5.62 5.777c.08.077.169.14.277.189a.867.867 0 0 0 .955-.19l5.619-5.776a.916.916 0 0 0 .02-1.276z"/></svg></svg>