<svg width="17" height="17" xmlns="http://www.w3.org/2000/svg" xmlns:xlink="http://www.w3.org/1999/xlink" xmlns:svgjs="http://svgjs.com/svgjs" viewBox="0 0.002 17 16.997" fill="#4c18aa"><svg xmlns="http://www.w3.org/2000/svg" width="17" height="17" viewBox="1 0.2 16 15.997"><path paint-order="stroke fill markers" fill-rule="evenodd" d="M16.943 4.9c-.06-1.28-.353-2.416-1.292-3.351C14.716.614 13.581.32 12.3.257 10.98.182 7.02.182 5.7.257 4.422.317 3.286.61 2.348 1.545c-.939.936-1.228 2.07-1.292 3.352-.075 1.32-.075 5.279 0 6.6.06 1.281.353 2.416 1.292 3.352.938.935 2.07 1.227 3.351 1.292 1.321.075 5.28.075 6.6 0 1.282-.061 2.417-.354 3.352-1.292.935-.936 1.228-2.07 1.292-3.352.075-1.321.075-5.276 0-6.597zm-1.706 8.014a2.699 2.699 0 0 1-1.52 1.52c-1.054.418-3.552.322-4.716.322-1.163 0-3.666.093-4.715-.322a2.699 2.699 0 0 1-1.52-1.52c-.418-1.053-.322-3.552-.322-4.715 0-1.164-.093-3.666.321-4.716a2.7 2.7 0 0 1 1.52-1.52c1.054-.418 3.553-.322 4.716-.322 1.164 0 3.666-.092 4.716.322a2.7 2.7 0 0 1 1.52 1.52c.418 1.053.321 3.552.321 4.716 0 1.163.097 3.665-.321 4.715zm-1.01-8.984a.954.954 0 0 1-.957.956.957.957 0 1 1 .957-.957zM9 4.097a4.095 4.095 0 0 0-4.1 4.102A4.095 4.095 0 0 0 9 12.3a4.095 4.095 0 0 0 4.101-4.101c0-2.27-1.83-4.102-4.1-4.102zm0 6.768a2.671 2.671 0 0 1-2.666-2.666A2.669 2.669 0 0 1 9 5.532 2.669 2.669 0 0 1 11.668 8.2c0 1.47-1.2 2.666-2.667 2.666z"/></svg></svg>