<svg width="25" height="24" xmlns="http://www.w3.org/2000/svg" xmlns:xlink="http://www.w3.org/1999/xlink" xmlns:svgjs="http://svgjs.com/svgjs" viewBox="0.5 0 24 24" fill="#fff"><svg xmlns="http://www.w3.org/2000/svg" width="25" height="24" viewBox="0.002 0 24 24"><path paint-order="stroke fill markers" fill-rule="evenodd" d="M12.002 24a11.915 11.915 0 0 1-8.485-3.516A11.914 11.914 0 0 1 .002 12c0-3.207 1.248-6.22 3.515-8.484A11.909 11.909 0 0 1 12.002 0c6.617 0 12 5.383 12 12s-5.383 12-12 12zm-5.52-8.784v1.118h1.6v1.664h2.076v-1.664h3.521v-1.116h-3.52v-.912h2.528c1.49 0 2.666-.324 3.494-.963.837-.64 1.26-1.576 1.26-2.783 0-1.222-.423-2.164-1.26-2.799-.826-.638-2.001-.96-3.494-.96H8.082v8.417h-1.6v-.002zm6.188-2.595h-2.512V8.558h2.512c.855 0 1.523.176 1.988.52.453.344.684.85.684 1.498 0 .644-.235 1.154-.696 1.51-.453.355-1.119.535-1.976.535z"/></svg></svg>