<svg width="228" height="48" xmlns="http://www.w3.org/2000/svg" xmlns:xlink="http://www.w3.org/1999/xlink" xmlns:svgjs="http://svgjs.com/svgjs" viewBox="200 25 228 48"><svg width="48" height="48" xmlns="http://www.w3.org/2000/svg" xmlns:xlink="http://www.w3.org/1999/xlink" xmlns:svgjs="http://svgjs.com/svgjs" viewBox="0.001 0 47.999 48" fill="#4b18a9" x="200" y="25"><svg xmlns="http://www.w3.org/2000/svg" xmlns:xlink="http://www.w3.org/1999/xlink" width="48" height="48" viewBox="0.001 0 47.999 48"><path paint-order="stroke fill markers" fill-rule="evenodd" d="M23.997 48c-3.242 0-6.385-.635-9.34-1.887a23.875 23.875 0 0 1-7.629-5.144A23.926 23.926 0 0 1 .001 23.998c0-3.24.634-6.383 1.886-9.34a23.876 23.876 0 0 1 5.141-7.629 23.89 23.89 0 0 1 7.628-5.142A23.812 23.812 0 0 1 23.997 0c3.244 0 6.388.634 9.344 1.887a23.904 23.904 0 0 1 7.63 5.142 23.892 23.892 0 0 1 5.143 7.629A23.839 23.839 0 0 1 48 23.998a23.938 23.938 0 0 1-7.028 16.97 23.89 23.89 0 0 1-7.631 5.145A23.828 23.828 0 0 1 23.997 48zm-9.996-35.998v23.996h10.837c2.582 0 4.893-.5 6.872-1.487 1.985-.996 3.547-2.41 4.64-4.204 1.093-1.8 1.648-3.923 1.648-6.31 0-2.384-.555-4.505-1.648-6.304-1.1-1.799-2.66-3.213-4.64-4.2-1.979-.99-4.29-1.491-6.872-1.491H14zm10.57 19.441h-5.052v-14.88h5.052c2.38 0 4.3.675 5.708 2.005 1.411 1.328 2.127 3.155 2.127 5.43 0 2.277-.716 4.105-2.127 5.435-1.418 1.335-3.338 2.01-5.708 2.01z"/></svg></svg><svg width="165" height="25" xmlns="http://www.w3.org/2000/svg" xmlns:xlink="http://www.w3.org/1999/xlink" xmlns:svgjs="http://svgjs.com/svgjs" viewBox="0 0.427 165 24.146" fill="#100246" x="263" y="36"><svg xmlns="http://www.w3.org/2000/svg" width="165" height="25" viewBox="0.999 0.999 164 24"><path paint-order="stroke fill markers" fill-rule="evenodd" d="M.999 1.397h10.128c2.42 0 4.56.48 6.418 1.442 1.858.961 3.302 2.315 4.332 4.06 1.03 1.746 1.545 3.78 1.545 6.1s-.515 4.354-1.545 6.1c-1.03 1.745-2.474 3.099-4.332 4.06-1.858.962-3.997 1.442-6.418 1.442H.999V1.397zm9.874 18.795c2.229 0 4.007-.646 5.334-1.939 1.328-1.293 1.991-3.044 1.991-5.254 0-2.21-.663-3.961-1.99-5.254-1.328-1.293-3.106-1.94-5.335-1.94H6.158v14.387h4.715zm40.068.1v4.31H33.678V1.396h16.849v4.31H38.806v5.038h10.351v4.177H38.806v5.37H50.94zM81.868 1.397V24.6h-4.236L66.516 10.513v14.088H61.42V1.397h4.268l11.084 14.088V1.397h5.096zm16.276 4.376h-7.135V1.397h19.429v4.376h-7.134V24.6h-5.16V5.773zm28.602 19.226a17.57 17.57 0 0 1-5.112-.746c-1.646-.497-2.968-1.143-3.966-1.94l1.752-4.043c.956.73 2.092 1.315 3.408 1.756 1.317.443 2.633.664 3.95.664 1.465 0 2.548-.227 3.248-.68.701-.453 1.052-1.055 1.052-1.807 0-.552-.208-1.01-.621-1.375-.415-.365-.945-.658-1.593-.879-.648-.22-1.524-.464-2.628-.729-1.698-.42-3.09-.84-4.172-1.26a6.783 6.783 0 0 1-2.787-2.022c-.775-.928-1.163-2.165-1.163-3.712 0-1.349.35-2.57 1.051-3.664.701-1.093 1.757-1.96 3.17-2.602 1.411-.64 3.137-.96 5.175-.96 1.423 0 2.814.176 4.173.53 1.359.353 2.548.861 3.567 1.524l-1.593 4.078c-2.06-1.216-4.119-1.824-6.179-1.824-1.444 0-2.51.243-3.2.73-.69.486-1.036 1.127-1.036 1.922 0 .796.398 1.387 1.195 1.774.796.386 2.011.768 3.646 1.144 1.7.42 3.09.84 4.173 1.26a6.909 6.909 0 0 1 2.787 1.988c.775.906 1.162 2.133 1.162 3.68a6.518 6.518 0 0 1-1.067 3.63c-.71 1.093-1.778 1.96-3.2 2.602-1.423.64-3.154.961-5.192.961zm29.59-8.619v8.221h-5.16v-8.287l-8.632-14.917h5.478l5.956 10.31 5.956-10.31H165l-8.664 14.983z"/></svg></svg></svg>