<svg width="48" height="48" xmlns="http://www.w3.org/2000/svg" xmlns:xlink="http://www.w3.org/1999/xlink" xmlns:svgjs="http://svgjs.com/svgjs" viewBox="832 500 48 48"><svg width="48" height="48" xmlns="http://www.w3.org/2000/svg" xmlns:xlink="http://www.w3.org/1999/xlink" xmlns:svgjs="http://svgjs.com/svgjs" fill="#f6f3ff" x="832" y="500"><svg xmlns="http://www.w3.org/2000/svg" xmlns:xlink="http://www.w3.org/1999/xlink" width="48" height="48"><path paint-order="stroke fill markers" fill-rule="evenodd" d="M24 48C10.728 48 0 37.272 0 24S10.728 0 24 0s24 10.728 24 24-10.728 24-24 24z"/></svg></svg><svg width="25" height="14" xmlns="http://www.w3.org/2000/svg" xmlns:xlink="http://www.w3.org/1999/xlink" xmlns:svgjs="http://svgjs.com/svgjs" viewBox="0.056 0 24.888 14" fill="#4c18aa" x="843" y="517"><svg xmlns="http://www.w3.org/2000/svg" width="25" height="14" viewBox="0.25 0.25 24 13.5"><path paint-order="stroke fill markers" fill-rule="evenodd" d="M23.703 1.165c.165-.527 0-.915-.793-.915h-2.624c-.668 0-.976.333-1.14.704 0 0-1.337 3.084-3.226 5.084-.61.578-.891.764-1.226.764-.164 0-.418-.186-.418-.713V1.165c0-.633-.187-.915-.74-.915H9.411c-.42 0-.669.295-.669.57 0 .598.945.738 1.043 2.425v3.662c0 .802-.152.95-.486.95-.891 0-3.056-3.097-4.34-6.641C4.701.528 4.447.25 3.774.25H1.15c-.748 0-.9.333-.9.704 0 .658.891 3.928 4.148 8.248 2.17 2.949 5.226 4.548 8.006 4.548 1.671 0 1.876-.355 1.876-.966 0-2.819-.151-3.084.686-3.084.388 0 1.056.186 2.616 1.607 1.782 1.688 2.076 2.443 3.074 2.443h2.624c.749 0 1.127-.355.909-1.055-.499-1.472-3.872-4.501-4.023-4.704-.388-.472-.277-.683 0-1.105.004-.004 3.208-4.274 3.537-5.72z"/></svg></svg></svg>